<?xml version="1.0" encoding="UTF-8" standalone="no"?>
<!-- Created with Inkscape (http://www.inkscape.org/) -->

<svg
   version="1.1"
   id="svg2"
   width="4666.6665"
   height="2666.6667"
   viewBox="0 0 4666.6665 2666.6667"
   sodipodi:docname="NA_October_10.eps"
   xmlns:inkscape="http://www.inkscape.org/namespaces/inkscape"
   xmlns:sodipodi="http://sodipodi.sourceforge.net/DTD/sodipodi-0.dtd"
   xmlns="http://www.w3.org/2000/svg"
   xmlns:svg="http://www.w3.org/2000/svg">
  <defs
     id="defs6">
    <clipPath
       clipPathUnits="userSpaceOnUse"
       id="clipPath24">
      <path
         d="M 4165.66,1504.2 H 30573.7 c 805.9,1836.9 1126.2,3884.3 863.6,5873 -135.5,1025.2 -439.3,2074.3 -1148.8,2826.5 -449.8,476.8 -1037.1,805.4 -1648.8,1041.1 -1500.4,578.1 -3200.9,620.7 -4728.3,118.3 -1004.1,-330.3 -2015.1,-895.8 -3051.3,-687.4 -451.5,90.8 -861.2,324.5 -1241.5,584.1 -2033.1,1387.8 -3589.5,3659.2 -5994.9,4182 -1555.6,338.1 -3213.5,-162 -4508.36,-1088.1 C 7820.45,13427.7 6851.52,12111.5 6072.42,10723.2 4498.97,7919.6 3699.1,4685.1 4165.66,1504.2"
         id="path22" />
    </clipPath>
    <clipPath
       clipPathUnits="userSpaceOnUse"
       id="clipPath36">
      <path
         d="M 21555.2,8548.5 H 9365.48 c -132.09,0 -239.18,107 -239.18,239.1 v 8071.8 c 0,132.1 107.09,239.2 239.18,239.2 H 21555.2 c 132.1,0 239.2,-107.1 239.2,-239.2 V 8787.6 c 0,-132.1 -107.1,-239.1 -239.2,-239.1"
         id="path34" />
    </clipPath>
    <clipPath
       clipPathUnits="userSpaceOnUse"
       id="clipPath406">
      <path
         d="m 16040.1,7985 c -641.7,-1109 -2060.9,-1487.9 -3169.8,-846.2 -1109,641.7 -1487.9,2060.8 -846.2,3169.8 641.7,1109 2060.8,1487.8 3169.8,846.2 1109,-641.7 1487.8,-2060.9 846.2,-3169.8"
         id="path404" />
    </clipPath>
  </defs>
  <sodipodi:namedview
     id="namedview4"
     pagecolor="#ffffff"
     bordercolor="#000000"
     borderopacity="0.25"
     inkscape:showpageshadow="2"
     inkscape:pageopacity="0.0"
     inkscape:pagecheckerboard="0"
     inkscape:deskcolor="#d1d1d1" />
  <g
     id="g8"
     inkscape:groupmode="layer"
     inkscape:label="ink_ext_XXXXXX"
     transform="matrix(1.3333333,0,0,-1.3333333,0,2666.6667)">
    <g
       id="g10"
       transform="scale(0.1)">
      <path
         d="M 0,0 H 35000 V 20000 H 0 Z"
         style="fill:#ffffff;fill-opacity:1;fill-rule:nonzero;stroke:none"
         id="path12" />
      <path
         d="m 20638,15696.3 c -18,-148.5 -25.1,-296.4 -20.4,-441.3 18.1,-549.6 272.4,-1205.5 788.3,-1472.3 643,-332.4 1450.8,12.7 2126,-207.2 1045.7,-340.7 1915.1,-1724 3103.1,-963.4 876,560.9 1193.6,1904.5 1008,2871.4 -326.1,1698.5 -1865.1,2988.8 -3586.6,3052.6 -1104.3,40.9 -2192.8,-363.1 -2828.6,-1282.7 -306.2,-442.8 -522.9,-1004 -589.8,-1557.1"
         style="fill:#f4f7fd;fill-opacity:1;fill-rule:nonzero;stroke:none"
         id="path14" />
      <path
         d="M 4165.66,1504.2 H 30573.7 c 805.9,1836.9 1126.2,3884.3 863.6,5873 -135.5,1025.2 -439.3,2074.3 -1148.8,2826.5 -449.8,476.8 -1037.1,805.4 -1648.8,1041.1 -1500.4,578.1 -3200.9,620.7 -4728.3,118.3 -1004.1,-330.3 -2015.1,-895.8 -3051.3,-687.4 -451.5,90.8 -861.2,324.5 -1241.5,584.1 -2033.1,1387.8 -3589.5,3659.2 -5994.9,4182 -1555.6,338.1 -3213.5,-162 -4508.36,-1088.1 C 7820.45,13427.7 6851.52,12111.5 6072.42,10723.2 4498.97,7919.6 3699.1,4685.1 4165.66,1504.2"
         style="fill:#f4f7fd;fill-opacity:1;fill-rule:nonzero;stroke:none"
         id="path16" />
      <g
         id="g18">
        <g
           id="g20"
           clip-path="url(#clipPath24)">
          <path
             d="M 30573.7,1504.2 H 4165.66 c -89.3,608.8 -132.21,1219.6 -132.17,1829 0.06,947.1 103.88,1890.9 298.41,2818.3 953.86,239.2 1937.07,358.8 2920.56,358.8 1075.79,0 2151.96,-143.3 3188.84,-430.3 368.2,-101.9 730.8,-221.2 1090.2,-350 l -1236,-2136.2 c -39.4,-68 -16.1,-155 51.9,-194.4 l 153.2,-88.6 c -11.8,-58.2 14,-119.9 68.2,-151.3 l 538.3,-311.5 c 22.4,-13 46.9,-19.1 71.1,-19.1 49.1,0 96.9,25.4 123.3,71 L 12685,5291.1 c 674.2,-265.2 1347.5,-533.7 2037.7,-751.7 1185.7,-374.6 2419,-598.4 3660.8,-664.3 179.2,-9.5 359.6,-15.6 539.9,-15.6 540.7,0 1080.8,54.7 1588,235 911.6,324 1633.7,1020.6 2316.6,1705.9 1106.2,1110.2 2204.8,2254.7 3537.6,3079.2 913.2,564.9 1951.2,969.3 3027.6,1055.1 136.4,10.8 273.1,16.5 409.9,16.5 157.2,0 314.5,-7.5 471,-22.8 80.2,-7.9 167.9,-9.2 256.2,-12.5 539.3,-719.9 788.1,-1638.5 907,-2538.7 60.2,-456.4 89.8,-915.8 89.9,-1375.2 0.1,-1542.1 -332.5,-3082.4 -953.5,-4497.8"
             style="fill:#e1edfc;fill-opacity:1;fill-rule:nonzero;stroke:none"
             id="path26" />
        </g>
      </g>
      <path
         d="M 21555.2,8548.5 H 9365.48 c -132.09,0 -239.18,107 -239.18,239.1 v 8071.8 c 0,132.1 107.09,239.2 239.18,239.2 H 21555.2 c 132.1,0 239.2,-107.1 239.2,-239.2 V 8787.6 c 0,-132.1 -107.1,-239.1 -239.2,-239.1"
         style="fill:#cce6ff;fill-opacity:1;fill-rule:nonzero;stroke:none"
         id="path28" />
      <g
         id="g30">
        <g
           id="g32"
           clip-path="url(#clipPath36)">
          <path
             d="M 22368.6,16165.3 H 8502.96 v 1419.4 H 22368.6 v -1419.4"
             style="fill:#102a54;fill-opacity:1;fill-rule:nonzero;stroke:none"
             id="path38" />
        </g>
      </g>
      <path
         d="m 9970.08,16592.3 c 0,-95.7 -77.58,-173.2 -173.28,-173.2 -95.7,0 -173.28,77.5 -173.28,173.2 0,95.7 77.58,173.3 173.28,173.3 95.7,0 173.28,-77.6 173.28,-173.3"
         style="fill:#3c94f8;fill-opacity:1;fill-rule:nonzero;stroke:none"
         id="path40" />
      <path
         d="m 10599.5,16592.3 c 0,-95.7 -77.6,-173.2 -173.3,-173.2 -95.7,0 -173.3,77.5 -173.3,173.2 0,95.7 77.6,173.3 173.3,173.3 95.7,0 173.3,-77.6 173.3,-173.3"
         style="fill:#ffffff;fill-opacity:1;fill-rule:nonzero;stroke:none"
         id="path42" />
      <path
         d="m 11228.8,16592.3 c 0,-95.7 -77.5,-173.2 -173.2,-173.2 -95.8,0 -173.3,77.5 -173.3,173.2 0,95.7 77.5,173.3 173.3,173.3 95.7,0 173.2,-77.6 173.2,-173.3"
         style="fill:#ffffff;fill-opacity:1;fill-rule:nonzero;stroke:none"
         id="path44" />
      <path
         d="m 9327.03,17180.4 c -158.22,0 -286.93,-128.7 -286.93,-286.9 V 8947.2 c 0,-158.2 128.71,-287 286.93,-287 H 21391.3 c 158.2,0 286.9,128.8 286.9,287 v 7946.3 c 0,158.2 -128.7,286.9 -286.9,286.9 H 9327.03 M 21391.3,8630.2 H 9327.03 c -174.76,0 -316.93,142.2 -316.93,317 v 7946.3 c 0,174.7 142.17,316.9 316.93,316.9 H 21391.3 c 174.7,0 316.9,-142.2 316.9,-316.9 V 8947.2 c 0,-174.8 -142.2,-317 -316.9,-317"
         style="fill:#102a54;fill-opacity:1;fill-rule:nonzero;stroke:none"
         id="path46" />
      <path
         d="M 12976.7,9376.1 H 9812.56 c -68.06,0 -123.23,55.2 -123.23,123.2 V 15277 c 0,68 55.17,123.2 123.23,123.2 h 3164.14 c 68,0 123.2,-55.2 123.2,-123.2 V 9499.3 c 0,-68 -55.2,-123.2 -123.2,-123.2"
         style="fill:#f4f7fd;fill-opacity:1;fill-rule:nonzero;stroke:none"
         id="path48" />
      <path
         d="M 11164.8,13431.7 H 9951.94 c -31.24,0 -56.56,25.3 -56.56,56.5 v 1578.1 c 0,31.2 25.32,56.6 56.56,56.6 h 1212.86 c 31.2,0 56.5,-25.4 56.5,-56.6 v -1578.1 c 0,-31.2 -25.3,-56.5 -56.5,-56.5"
         style="fill:#cce6ff;fill-opacity:1;fill-rule:nonzero;stroke:none"
         id="path50" />
      <path
         d="m 11666,15016.9 c 0,-58.5 -47.4,-105.9 -105.9,-105.9 -58.5,0 -105.9,47.4 -105.9,105.9 0,58.5 47.4,106 105.9,106 58.5,0 105.9,-47.5 105.9,-106"
         style="fill:#cce6ff;fill-opacity:1;fill-rule:nonzero;stroke:none"
         id="path52" />
      <path
         d="m 12896.4,15055 h -1016.5 c -12.5,0 -22.6,10.1 -22.6,22.6 0,12.5 10.1,22.6 22.6,22.6 h 1016.5 c 12.5,0 22.7,-10.1 22.7,-22.6 0,-12.5 -10.2,-22.6 -22.7,-22.6"
         style="fill:#cce6ff;fill-opacity:1;fill-rule:nonzero;stroke:none"
         id="path54" />
      <path
         d="m 12896.4,14933.7 h -1016.5 c -12.5,0 -22.6,10.1 -22.6,22.6 0,12.5 10.1,22.6 22.6,22.6 h 1016.5 c 12.5,0 22.7,-10.1 22.7,-22.6 0,-12.5 -10.2,-22.6 -22.7,-22.6"
         style="fill:#cce6ff;fill-opacity:1;fill-rule:nonzero;stroke:none"
         id="path56" />
      <path
         d="m 12896.4,14812.4 h -1016.5 c -12.5,0 -22.6,10.1 -22.6,22.6 0,12.5 10.1,22.6 22.6,22.6 h 1016.5 c 12.5,0 22.7,-10.1 22.7,-22.6 0,-12.5 -10.2,-22.6 -22.7,-22.6"
         style="fill:#cce6ff;fill-opacity:1;fill-rule:nonzero;stroke:none"
         id="path58" />
      <path
         d="m 11666,14576.4 c 0,-58.5 -47.4,-105.9 -105.9,-105.9 -58.5,0 -105.9,47.4 -105.9,105.9 0,58.5 47.4,105.9 105.9,105.9 58.5,0 105.9,-47.4 105.9,-105.9"
         style="fill:#cce6ff;fill-opacity:1;fill-rule:nonzero;stroke:none"
         id="path60" />
      <path
         d="m 12896.4,14614.4 h -1016.5 c -12.5,0 -22.6,10.1 -22.6,22.6 0,12.5 10.1,22.7 22.6,22.7 h 1016.5 c 12.5,0 22.7,-10.2 22.7,-22.7 0,-12.5 -10.2,-22.6 -22.7,-22.6"
         style="fill:#cce6ff;fill-opacity:1;fill-rule:nonzero;stroke:none"
         id="path62" />
      <path
         d="m 12896.4,14493.1 h -1016.5 c -12.5,0 -22.6,10.1 -22.6,22.6 0,12.5 10.1,22.7 22.6,22.7 h 1016.5 c 12.5,0 22.7,-10.2 22.7,-22.7 0,-12.5 -10.2,-22.6 -22.7,-22.6"
         style="fill:#cce6ff;fill-opacity:1;fill-rule:nonzero;stroke:none"
         id="path64" />
      <path
         d="m 12896.4,14371.8 h -1016.5 c -12.5,0 -22.6,10.1 -22.6,22.6 0,12.5 10.1,22.7 22.6,22.7 h 1016.5 c 12.5,0 22.7,-10.2 22.7,-22.7 0,-12.5 -10.2,-22.6 -22.7,-22.6"
         style="fill:#cce6ff;fill-opacity:1;fill-rule:nonzero;stroke:none"
         id="path66" />
      <path
         d="m 11666,14135.8 c 0,-58.5 -47.4,-105.9 -105.9,-105.9 -58.5,0 -105.9,47.4 -105.9,105.9 0,58.5 47.4,105.9 105.9,105.9 58.5,0 105.9,-47.4 105.9,-105.9"
         style="fill:#cce6ff;fill-opacity:1;fill-rule:nonzero;stroke:none"
         id="path68" />
      <path
         d="m 12896.4,14173.8 h -1016.5 c -12.5,0 -22.6,10.2 -22.6,22.7 0,12.5 10.1,22.6 22.6,22.6 h 1016.5 c 12.5,0 22.7,-10.1 22.7,-22.6 0,-12.5 -10.2,-22.7 -22.7,-22.7"
         style="fill:#cce6ff;fill-opacity:1;fill-rule:nonzero;stroke:none"
         id="path70" />
      <path
         d="m 12896.4,14052.5 h -1016.5 c -12.5,0 -22.6,10.2 -22.6,22.7 0,12.5 10.1,22.6 22.6,22.6 h 1016.5 c 12.5,0 22.7,-10.1 22.7,-22.6 0,-12.5 -10.2,-22.7 -22.7,-22.7"
         style="fill:#cce6ff;fill-opacity:1;fill-rule:nonzero;stroke:none"
         id="path72" />
      <path
         d="m 12896.4,13931.2 h -1016.5 c -12.5,0 -22.6,10.2 -22.6,22.7 0,12.5 10.1,22.6 22.6,22.6 h 1016.5 c 12.5,0 22.7,-10.1 22.7,-22.6 0,-12.5 -10.2,-22.7 -22.7,-22.7"
         style="fill:#cce6ff;fill-opacity:1;fill-rule:nonzero;stroke:none"
         id="path74" />
      <path
         d="m 11666,13695.3 c 0,-58.5 -47.4,-106 -105.9,-106 -58.5,0 -105.9,47.5 -105.9,106 0,58.4 47.4,105.9 105.9,105.9 58.5,0 105.9,-47.5 105.9,-105.9"
         style="fill:#cce6ff;fill-opacity:1;fill-rule:nonzero;stroke:none"
         id="path76" />
      <path
         d="m 12896.4,13733.3 h -1016.5 c -12.5,0 -22.6,10.1 -22.6,22.6 0,12.5 10.1,22.6 22.6,22.6 h 1016.5 c 12.5,0 22.7,-10.1 22.7,-22.6 0,-12.5 -10.2,-22.6 -22.7,-22.6"
         style="fill:#cce6ff;fill-opacity:1;fill-rule:nonzero;stroke:none"
         id="path78" />
      <path
         d="m 12896.4,13612 h -1016.5 c -12.5,0 -22.6,10.1 -22.6,22.6 0,12.5 10.1,22.6 22.6,22.6 h 1016.5 c 12.5,0 22.7,-10.1 22.7,-22.6 0,-12.5 -10.2,-22.6 -22.7,-22.6"
         style="fill:#cce6ff;fill-opacity:1;fill-rule:nonzero;stroke:none"
         id="path80" />
      <path
         d="m 12896.4,13490.7 h -1016.5 c -12.5,0 -22.6,10.1 -22.6,22.6 0,12.5 10.1,22.6 22.6,22.6 h 1016.5 c 12.5,0 22.7,-10.1 22.7,-22.6 0,-12.5 -10.2,-22.6 -22.7,-22.6"
         style="fill:#cce6ff;fill-opacity:1;fill-rule:nonzero;stroke:none"
         id="path82" />
      <path
         d="M 11152.2,11562.9 H 9939.33 c -31.23,0 -56.55,25.3 -56.55,56.6 v 1578 c 0,31.3 25.32,56.6 56.55,56.6 h 1212.87 c 31.2,0 56.5,-25.3 56.5,-56.6 v -1578 c 0,-31.3 -25.3,-56.6 -56.5,-56.6"
         style="fill:#cce6ff;fill-opacity:1;fill-rule:nonzero;stroke:none"
         id="path84" />
      <path
         d="m 11653.4,13148.2 c 0,-58.5 -47.4,-105.9 -105.9,-105.9 -58.5,0 -105.9,47.4 -105.9,105.9 0,58.5 47.4,105.9 105.9,105.9 58.5,0 105.9,-47.4 105.9,-105.9"
         style="fill:#cce6ff;fill-opacity:1;fill-rule:nonzero;stroke:none"
         id="path86" />
      <path
         d="m 12883.8,13186.2 h -1016.5 c -12.5,0 -22.6,10.1 -22.6,22.6 0,12.5 10.1,22.7 22.6,22.7 h 1016.5 c 12.5,0 22.7,-10.2 22.7,-22.7 0,-12.5 -10.2,-22.6 -22.7,-22.6"
         style="fill:#cce6ff;fill-opacity:1;fill-rule:nonzero;stroke:none"
         id="path88" />
      <path
         d="m 12883.8,13064.9 h -1016.5 c -12.5,0 -22.6,10.1 -22.6,22.6 0,12.5 10.1,22.7 22.6,22.7 h 1016.5 c 12.5,0 22.7,-10.2 22.7,-22.7 0,-12.5 -10.2,-22.6 -22.7,-22.6"
         style="fill:#cce6ff;fill-opacity:1;fill-rule:nonzero;stroke:none"
         id="path90" />
      <path
         d="m 12883.8,12943.6 h -1016.5 c -12.5,0 -22.6,10.1 -22.6,22.6 0,12.5 10.1,22.7 22.6,22.7 h 1016.5 c 12.5,0 22.7,-10.2 22.7,-22.7 0,-12.5 -10.2,-22.6 -22.7,-22.6"
         style="fill:#cce6ff;fill-opacity:1;fill-rule:nonzero;stroke:none"
         id="path92" />
      <path
         d="m 11653.4,12707.6 c 0,-58.5 -47.4,-105.9 -105.9,-105.9 -58.5,0 -105.9,47.4 -105.9,105.9 0,58.5 47.4,105.9 105.9,105.9 58.5,0 105.9,-47.4 105.9,-105.9"
         style="fill:#cce6ff;fill-opacity:1;fill-rule:nonzero;stroke:none"
         id="path94" />
      <path
         d="m 12883.8,12745.6 h -1016.5 c -12.5,0 -22.6,10.2 -22.6,22.7 0,12.5 10.1,22.6 22.6,22.6 h 1016.5 c 12.5,0 22.7,-10.1 22.7,-22.6 0,-12.5 -10.2,-22.7 -22.7,-22.7"
         style="fill:#cce6ff;fill-opacity:1;fill-rule:nonzero;stroke:none"
         id="path96" />
      <path
         d="m 12883.8,12624.3 h -1016.5 c -12.5,0 -22.6,10.2 -22.6,22.7 0,12.5 10.1,22.6 22.6,22.6 h 1016.5 c 12.5,0 22.7,-10.1 22.7,-22.6 0,-12.5 -10.2,-22.7 -22.7,-22.7"
         style="fill:#cce6ff;fill-opacity:1;fill-rule:nonzero;stroke:none"
         id="path98" />
      <path
         d="m 12883.8,12503 h -1016.5 c -12.5,0 -22.6,10.2 -22.6,22.7 v 0 c 0,12.5 10.1,22.6 22.6,22.6 h 1016.5 c 12.5,0 22.7,-10.1 22.7,-22.6 v 0 c 0,-12.5 -10.2,-22.7 -22.7,-22.7"
         style="fill:#cce6ff;fill-opacity:1;fill-rule:nonzero;stroke:none"
         id="path100" />
      <path
         d="m 11653.4,12267.1 c 0,-58.5 -47.4,-106 -105.9,-106 -58.5,0 -105.9,47.5 -105.9,106 0,58.4 47.4,105.9 105.9,105.9 58.5,0 105.9,-47.5 105.9,-105.9"
         style="fill:#cce6ff;fill-opacity:1;fill-rule:nonzero;stroke:none"
         id="path102" />
      <path
         d="m 12883.8,12305.1 h -1016.5 c -12.5,0 -22.6,10.1 -22.6,22.6 0,12.5 10.1,22.6 22.6,22.6 h 1016.5 c 12.5,0 22.7,-10.1 22.7,-22.6 0,-12.5 -10.2,-22.6 -22.7,-22.6"
         style="fill:#cce6ff;fill-opacity:1;fill-rule:nonzero;stroke:none"
         id="path104" />
      <path
         d="m 12883.8,12183.8 h -1016.5 c -12.5,0 -22.6,10.1 -22.6,22.6 0,12.5 10.1,22.6 22.6,22.6 h 1016.5 c 12.5,0 22.7,-10.1 22.7,-22.6 0,-12.5 -10.2,-22.6 -22.7,-22.6"
         style="fill:#cce6ff;fill-opacity:1;fill-rule:nonzero;stroke:none"
         id="path106" />
      <path
         d="m 12883.8,12062.5 h -1016.5 c -12.5,0 -22.6,10.1 -22.6,22.6 0,12.5 10.1,22.6 22.6,22.6 h 1016.5 c 12.5,0 22.7,-10.1 22.7,-22.6 0,-12.5 -10.2,-22.6 -22.7,-22.6"
         style="fill:#cce6ff;fill-opacity:1;fill-rule:nonzero;stroke:none"
         id="path108" />
      <path
         d="m 11653.4,11826.5 c 0,-58.5 -47.4,-105.9 -105.9,-105.9 -58.5,0 -105.9,47.4 -105.9,105.9 0,58.5 47.4,105.9 105.9,105.9 58.5,0 105.9,-47.4 105.9,-105.9"
         style="fill:#cce6ff;fill-opacity:1;fill-rule:nonzero;stroke:none"
         id="path110" />
      <path
         d="m 12883.8,11864.5 h -1016.5 c -12.5,0 -22.6,10.1 -22.6,22.6 0,12.5 10.1,22.7 22.6,22.7 h 1016.5 c 12.5,0 22.7,-10.2 22.7,-22.7 0,-12.5 -10.2,-22.6 -22.7,-22.6"
         style="fill:#cce6ff;fill-opacity:1;fill-rule:nonzero;stroke:none"
         id="path112" />
      <path
         d="m 12883.8,11743.2 h -1016.5 c -12.5,0 -22.6,10.1 -22.6,22.6 0,12.5 10.1,22.7 22.6,22.7 h 1016.5 c 12.5,0 22.7,-10.2 22.7,-22.7 0,-12.5 -10.2,-22.6 -22.7,-22.6"
         style="fill:#cce6ff;fill-opacity:1;fill-rule:nonzero;stroke:none"
         id="path114" />
      <path
         d="m 12883.8,11621.9 h -1016.5 c -12.5,0 -22.6,10.1 -22.6,22.6 0,12.5 10.1,22.7 22.6,22.7 h 1016.5 c 12.5,0 22.7,-10.2 22.7,-22.7 0,-12.5 -10.2,-22.6 -22.7,-22.6"
         style="fill:#cce6ff;fill-opacity:1;fill-rule:nonzero;stroke:none"
         id="path116" />
      <path
         d="M 11139.6,9694.2 H 9926.73 c -31.24,0 -56.56,25.3 -56.56,56.5 v 1578.1 c 0,31.2 25.32,56.5 56.56,56.5 h 1212.87 c 31.2,0 56.5,-25.3 56.5,-56.5 V 9750.7 c 0,-31.2 -25.3,-56.5 -56.5,-56.5"
         style="fill:#cce6ff;fill-opacity:1;fill-rule:nonzero;stroke:none"
         id="path118" />
      <path
         d="m 11640.8,11279.4 c 0,-58.5 -47.4,-105.9 -105.9,-105.9 -58.5,0 -105.9,47.4 -105.9,105.9 0,58.5 47.4,105.9 105.9,105.9 58.5,0 105.9,-47.4 105.9,-105.9"
         style="fill:#cce6ff;fill-opacity:1;fill-rule:nonzero;stroke:none"
         id="path120" />
      <path
         d="m 12871.2,11317.4 h -1016.5 c -12.5,0 -22.7,10.2 -22.7,22.7 0,12.5 10.2,22.6 22.7,22.6 h 1016.5 c 12.5,0 22.7,-10.1 22.7,-22.6 0,-12.5 -10.2,-22.7 -22.7,-22.7"
         style="fill:#cce6ff;fill-opacity:1;fill-rule:nonzero;stroke:none"
         id="path122" />
      <path
         d="m 12871.2,11196.1 h -1016.5 c -12.5,0 -22.7,10.2 -22.7,22.7 0,12.5 10.2,22.6 22.7,22.6 h 1016.5 c 12.5,0 22.7,-10.1 22.7,-22.6 0,-12.5 -10.2,-22.7 -22.7,-22.7"
         style="fill:#cce6ff;fill-opacity:1;fill-rule:nonzero;stroke:none"
         id="path124" />
      <path
         d="m 12871.2,11074.8 h -1016.5 c -12.5,0 -22.7,10.2 -22.7,22.7 0,12.5 10.2,22.6 22.7,22.6 h 1016.5 c 12.5,0 22.7,-10.1 22.7,-22.6 0,-12.5 -10.2,-22.7 -22.7,-22.7"
         style="fill:#cce6ff;fill-opacity:1;fill-rule:nonzero;stroke:none"
         id="path126" />
      <path
         d="m 11640.8,10838.9 c 0,-58.5 -47.4,-106 -105.9,-106 -58.5,0 -105.9,47.5 -105.9,106 0,58.4 47.4,105.9 105.9,105.9 58.5,0 105.9,-47.5 105.9,-105.9"
         style="fill:#cce6ff;fill-opacity:1;fill-rule:nonzero;stroke:none"
         id="path128" />
      <path
         d="m 12871.2,10876.9 h -1016.5 c -12.5,0 -22.7,10.1 -22.7,22.6 0,12.5 10.2,22.6 22.7,22.6 h 1016.5 c 12.5,0 22.7,-10.1 22.7,-22.6 0,-12.5 -10.2,-22.6 -22.7,-22.6"
         style="fill:#cce6ff;fill-opacity:1;fill-rule:nonzero;stroke:none"
         id="path130" />
      <path
         d="m 12871.2,10755.6 h -1016.5 c -12.5,0 -22.7,10.1 -22.7,22.6 0,12.5 10.2,22.6 22.7,22.6 h 1016.5 c 12.5,0 22.7,-10.1 22.7,-22.6 0,-12.5 -10.2,-22.6 -22.7,-22.6"
         style="fill:#cce6ff;fill-opacity:1;fill-rule:nonzero;stroke:none"
         id="path132" />
      <path
         d="m 12871.2,10634.3 h -1016.5 c -12.5,0 -22.7,10.1 -22.7,22.6 0,12.5 10.2,22.6 22.7,22.6 h 1016.5 c 12.5,0 22.7,-10.1 22.7,-22.6 0,-12.5 -10.2,-22.6 -22.7,-22.6"
         style="fill:#cce6ff;fill-opacity:1;fill-rule:nonzero;stroke:none"
         id="path134" />
      <path
         d="m 11640.8,10398.3 c 0,-58.5 -47.4,-105.9 -105.9,-105.9 -58.5,0 -105.9,47.4 -105.9,105.9 0,58.5 47.4,105.9 105.9,105.9 58.5,0 105.9,-47.4 105.9,-105.9"
         style="fill:#cce6ff;fill-opacity:1;fill-rule:nonzero;stroke:none"
         id="path136" />
      <path
         d="m 12871.2,10436.3 h -1016.5 c -12.5,0 -22.7,10.1 -22.7,22.6 0,12.5 10.2,22.7 22.7,22.7 h 1016.5 c 12.5,0 22.7,-10.2 22.7,-22.7 0,-12.5 -10.2,-22.6 -22.7,-22.6"
         style="fill:#cce6ff;fill-opacity:1;fill-rule:nonzero;stroke:none"
         id="path138" />
      <path
         d="m 12871.2,10315 h -1016.5 c -12.5,0 -22.7,10.1 -22.7,22.6 0,12.5 10.2,22.7 22.7,22.7 h 1016.5 c 12.5,0 22.7,-10.2 22.7,-22.7 0,-12.5 -10.2,-22.6 -22.7,-22.6"
         style="fill:#cce6ff;fill-opacity:1;fill-rule:nonzero;stroke:none"
         id="path140" />
      <path
         d="m 12871.2,10193.7 h -1016.5 c -12.5,0 -22.7,10.1 -22.7,22.6 0,12.5 10.2,22.6 22.7,22.6 h 1016.5 c 12.5,0 22.7,-10.1 22.7,-22.6 0,-12.5 -10.2,-22.6 -22.7,-22.6"
         style="fill:#cce6ff;fill-opacity:1;fill-rule:nonzero;stroke:none"
         id="path142" />
      <path
         d="m 11640.8,9957.7 c 0,-58.5 -47.4,-105.9 -105.9,-105.9 -58.5,0 -105.9,47.4 -105.9,105.9 0,58.5 47.4,105.9 105.9,105.9 58.5,0 105.9,-47.4 105.9,-105.9"
         style="fill:#cce6ff;fill-opacity:1;fill-rule:nonzero;stroke:none"
         id="path144" />
      <path
         d="m 12871.2,9995.7 h -1016.5 c -12.5,0 -22.7,10.2 -22.7,22.7 0,12.5 10.2,22.6 22.7,22.6 h 1016.5 c 12.5,0 22.7,-10.1 22.7,-22.6 0,-12.5 -10.2,-22.7 -22.7,-22.7"
         style="fill:#cce6ff;fill-opacity:1;fill-rule:nonzero;stroke:none"
         id="path146" />
      <path
         d="m 12871.2,9874.4 h -1016.5 c -12.5,0 -22.7,10.2 -22.7,22.7 0,12.5 10.2,22.6 22.7,22.6 h 1016.5 c 12.5,0 22.7,-10.1 22.7,-22.6 0,-12.5 -10.2,-22.7 -22.7,-22.7"
         style="fill:#cce6ff;fill-opacity:1;fill-rule:nonzero;stroke:none"
         id="path148" />
      <path
         d="m 12871.2,9753.1 h -1016.5 c -12.5,0 -22.7,10.2 -22.7,22.7 0,12.5 10.2,22.6 22.7,22.6 h 1016.5 c 12.5,0 22.7,-10.1 22.7,-22.6 0,-12.5 -10.2,-22.7 -22.7,-22.7"
         style="fill:#cce6ff;fill-opacity:1;fill-rule:nonzero;stroke:none"
         id="path150" />
      <path
         d="m 10958.3,14245.8 h -819.9 c -26.1,0 -47.2,21.1 -47.2,47.2 v 642.8 c 0,26.1 21.1,47.2 47.2,47.2 h 819.9 c 26.1,0 47.2,-21.1 47.2,-47.2 V 14293 c 0,-26.1 -21.1,-47.2 -47.2,-47.2"
         style="fill:#f4f7fd;fill-opacity:1;fill-rule:nonzero;stroke:none"
         id="path152" />
      <path
         d="m 10977.4,14075.2 h -858.1 c -15.5,0 -28.1,12.6 -28.1,28.1 v 4.4 c 0,15.5 12.6,28.1 28.1,28.1 h 858.1 c 15.5,0 28.1,-12.6 28.1,-28.1 v -4.4 c 0,-15.5 -12.6,-28.1 -28.1,-28.1"
         style="fill:#f4f7fd;fill-opacity:1;fill-rule:nonzero;stroke:none"
         id="path154" />
      <path
         d="m 10977.4,13946.2 h -858.1 c -15.5,0 -28.1,12.6 -28.1,28.1 v 4.4 c 0,15.5 12.6,28.1 28.1,28.1 h 858.1 c 15.5,0 28.1,-12.6 28.1,-28.1 v -4.4 c 0,-15.5 -12.6,-28.1 -28.1,-28.1"
         style="fill:#f4f7fd;fill-opacity:1;fill-rule:nonzero;stroke:none"
         id="path156" />
      <path
         d="m 10977.4,13817.2 h -858.1 c -15.5,0 -28.1,12.5 -28.1,28.1 v 4.4 c 0,15.5 12.6,28.1 28.1,28.1 h 858.1 c 15.5,0 28.1,-12.6 28.1,-28.1 v -4.4 c 0,-15.6 -12.6,-28.1 -28.1,-28.1"
         style="fill:#f4f7fd;fill-opacity:1;fill-rule:nonzero;stroke:none"
         id="path158" />
      <path
         d="m 10977.4,13688.2 h -858.1 c -15.5,0 -28.1,12.5 -28.1,28.1 v 4.4 c 0,15.5 12.6,28.1 28.1,28.1 h 858.1 c 15.5,0 28.1,-12.6 28.1,-28.1 v -4.4 c 0,-15.6 -12.6,-28.1 -28.1,-28.1"
         style="fill:#f4f7fd;fill-opacity:1;fill-rule:nonzero;stroke:none"
         id="path160" />
      <path
         d="m 10977.4,13559.2 h -858.1 c -15.5,0 -28.1,12.5 -28.1,28.1 v 4.4 c 0,15.5 12.6,28.1 28.1,28.1 h 858.1 c 15.5,0 28.1,-12.6 28.1,-28.1 v -4.4 c 0,-15.6 -12.6,-28.1 -28.1,-28.1"
         style="fill:#f4f7fd;fill-opacity:1;fill-rule:nonzero;stroke:none"
         id="path162" />
      <path
         d="m 10958.3,12383.2 h -819.9 c -26.1,0 -47.2,21.2 -47.2,47.2 v 642.8 c 0,26.1 21.1,47.2 47.2,47.2 h 819.9 c 26.1,0 47.2,-21.1 47.2,-47.2 v -642.8 c 0,-26 -21.1,-47.2 -47.2,-47.2"
         style="fill:#f4f7fd;fill-opacity:1;fill-rule:nonzero;stroke:none"
         id="path164" />
      <path
         d="m 10977.4,12212.6 h -858.1 c -15.5,0 -28.1,12.6 -28.1,28.1 v 4.4 c 0,15.6 12.6,28.2 28.1,28.2 h 858.1 c 15.5,0 28.1,-12.6 28.1,-28.2 v -4.4 c 0,-15.5 -12.6,-28.1 -28.1,-28.1"
         style="fill:#f4f7fd;fill-opacity:1;fill-rule:nonzero;stroke:none"
         id="path166" />
      <path
         d="m 10977.4,12083.6 h -858.1 c -15.5,0 -28.1,12.6 -28.1,28.1 v 4.4 c 0,15.6 12.6,28.1 28.1,28.1 h 858.1 c 15.5,0 28.1,-12.5 28.1,-28.1 v -4.4 c 0,-15.5 -12.6,-28.1 -28.1,-28.1"
         style="fill:#f4f7fd;fill-opacity:1;fill-rule:nonzero;stroke:none"
         id="path168" />
      <path
         d="m 10977.4,11954.6 h -858.1 c -15.5,0 -28.1,12.6 -28.1,28.1 v 4.4 c 0,15.6 12.6,28.1 28.1,28.1 h 858.1 c 15.5,0 28.1,-12.5 28.1,-28.1 v -4.4 c 0,-15.5 -12.6,-28.1 -28.1,-28.1"
         style="fill:#f4f7fd;fill-opacity:1;fill-rule:nonzero;stroke:none"
         id="path170" />
      <path
         d="m 10977.4,11825.6 h -858.1 c -15.5,0 -28.1,12.6 -28.1,28.1 v 4.4 c 0,15.6 12.6,28.1 28.1,28.1 h 858.1 c 15.5,0 28.1,-12.5 28.1,-28.1 v -4.4 c 0,-15.5 -12.6,-28.1 -28.1,-28.1"
         style="fill:#f4f7fd;fill-opacity:1;fill-rule:nonzero;stroke:none"
         id="path172" />
      <path
         d="m 10977.4,11696.6 h -858.1 c -15.5,0 -28.1,12.6 -28.1,28.1 v 4.4 c 0,15.5 12.6,28.1 28.1,28.1 h 858.1 c 15.5,0 28.1,-12.6 28.1,-28.1 v -4.4 c 0,-15.5 -12.6,-28.1 -28.1,-28.1"
         style="fill:#f4f7fd;fill-opacity:1;fill-rule:nonzero;stroke:none"
         id="path174" />
      <path
         d="m 10958.3,10520.7 h -819.9 c -26.1,0 -47.2,21.1 -47.2,47.2 v 642.8 c 0,26 21.1,47.2 47.2,47.2 h 819.9 c 26.1,0 47.2,-21.2 47.2,-47.2 v -642.8 c 0,-26.1 -21.1,-47.2 -47.2,-47.2"
         style="fill:#f4f7fd;fill-opacity:1;fill-rule:nonzero;stroke:none"
         id="path176" />
      <path
         d="m 10977.4,10350 h -858.1 c -15.5,0 -28.1,12.6 -28.1,28.1 v 4.5 c 0,15.5 12.6,28.1 28.1,28.1 h 858.1 c 15.5,0 28.1,-12.6 28.1,-28.1 v -4.5 c 0,-15.5 -12.6,-28.1 -28.1,-28.1"
         style="fill:#f4f7fd;fill-opacity:1;fill-rule:nonzero;stroke:none"
         id="path178" />
      <path
         d="m 10977.4,10221 h -858.1 c -15.5,0 -28.1,12.6 -28.1,28.1 v 4.5 c 0,15.5 12.6,28.1 28.1,28.1 h 858.1 c 15.5,0 28.1,-12.6 28.1,-28.1 v -4.5 c 0,-15.5 -12.6,-28.1 -28.1,-28.1"
         style="fill:#f4f7fd;fill-opacity:1;fill-rule:nonzero;stroke:none"
         id="path180" />
      <path
         d="m 10977.4,10092 h -858.1 c -15.5,0 -28.1,12.6 -28.1,28.1 v 4.5 c 0,15.5 12.6,28.1 28.1,28.1 h 858.1 c 15.5,0 28.1,-12.6 28.1,-28.1 v -4.5 c 0,-15.5 -12.6,-28.1 -28.1,-28.1"
         style="fill:#f4f7fd;fill-opacity:1;fill-rule:nonzero;stroke:none"
         id="path182" />
      <path
         d="m 10977.4,9963 h -858.1 c -15.5,0 -28.1,12.6 -28.1,28.1 v 4.4 c 0,15.6 12.6,28.2 28.1,28.2 h 858.1 c 15.5,0 28.1,-12.6 28.1,-28.2 v -4.4 c 0,-15.5 -12.6,-28.1 -28.1,-28.1"
         style="fill:#f4f7fd;fill-opacity:1;fill-rule:nonzero;stroke:none"
         id="path184" />
      <path
         d="m 10977.4,9834 h -858.1 c -15.5,0 -28.1,12.6 -28.1,28.1 v 4.4 c 0,15.6 12.6,28.2 28.1,28.2 h 858.1 c 15.5,0 28.1,-12.6 28.1,-28.2 v -4.4 c 0,-15.5 -12.6,-28.1 -28.1,-28.1"
         style="fill:#f4f7fd;fill-opacity:1;fill-rule:nonzero;stroke:none"
         id="path186" />
      <path
         d="m 20905.7,9376.1 h -3164.1 c -68,0 -123.2,55.2 -123.2,123.2 V 15277 c 0,68 55.2,123.2 123.2,123.2 h 3164.1 c 68.1,0 123.3,-55.2 123.3,-123.2 V 9499.3 c 0,-68 -55.2,-123.2 -123.3,-123.2"
         style="fill:#f4f7fd;fill-opacity:1;fill-rule:nonzero;stroke:none"
         id="path188" />
      <path
         d="m 20727.6,15122.6 h -989.8 c -18.1,0 -32.7,14.7 -32.7,32.7 0,18.1 14.6,32.8 32.7,32.8 h 989.8 c 18.1,0 32.8,-14.7 32.8,-32.8 0,-18 -14.7,-32.7 -32.8,-32.7"
         style="fill:#cce6ff;fill-opacity:1;fill-rule:nonzero;stroke:none"
         id="path190" />
      <path
         d="m 20727.6,14973 h -989.8 c -18.1,0 -32.7,14.7 -32.7,32.8 0,18 14.6,32.6 32.7,32.6 h 989.8 c 18.1,0 32.8,-14.6 32.8,-32.6 0,-18.1 -14.7,-32.8 -32.8,-32.8"
         style="fill:#cce6ff;fill-opacity:1;fill-rule:nonzero;stroke:none"
         id="path192" />
      <path
         d="m 20727.6,14823.4 h -989.8 c -18.1,0 -32.7,14.7 -32.7,32.8 0,18 14.6,32.7 32.7,32.7 h 989.8 c 18.1,0 32.8,-14.7 32.8,-32.7 0,-18.1 -14.7,-32.8 -32.8,-32.8"
         style="fill:#cce6ff;fill-opacity:1;fill-rule:nonzero;stroke:none"
         id="path194" />
      <path
         d="m 20727.6,14673.9 h -989.8 c -18.1,0 -32.7,14.6 -32.7,32.7 0,18 14.6,32.7 32.7,32.7 h 989.8 c 18.1,0 32.8,-14.7 32.8,-32.7 0,-18.1 -14.7,-32.7 -32.8,-32.7"
         style="fill:#cce6ff;fill-opacity:1;fill-rule:nonzero;stroke:none"
         id="path196" />
      <path
         d="m 20727.6,14524.3 h -989.8 c -18.1,0 -32.7,14.6 -32.7,32.7 0,18 14.6,32.7 32.7,32.7 h 989.8 c 18.1,0 32.8,-14.7 32.8,-32.7 0,-18.1 -14.7,-32.7 -32.8,-32.7"
         style="fill:#cce6ff;fill-opacity:1;fill-rule:nonzero;stroke:none"
         id="path198" />
      <path
         d="m 20727.6,14374.7 h -989.8 c -18.1,0 -32.7,14.6 -32.7,32.7 0,18 14.6,32.7 32.7,32.7 h 989.8 c 18.1,0 32.8,-14.7 32.8,-32.7 0,-18.1 -14.7,-32.7 -32.8,-32.7"
         style="fill:#cce6ff;fill-opacity:1;fill-rule:nonzero;stroke:none"
         id="path200" />
      <path
         d="m 20727.6,14225.1 h -989.8 c -18.1,0 -32.7,14.6 -32.7,32.7 0,18 14.6,32.7 32.7,32.7 h 989.8 c 18.1,0 32.8,-14.7 32.8,-32.7 0,-18.1 -14.7,-32.7 -32.8,-32.7"
         style="fill:#cce6ff;fill-opacity:1;fill-rule:nonzero;stroke:none"
         id="path202" />
      <path
         d="m 20727.6,11380.8 h -989.8 c -18.1,0 -32.7,14.6 -32.7,32.7 0,18 14.6,32.7 32.7,32.7 h 989.8 c 18.1,0 32.8,-14.7 32.8,-32.7 0,-18.1 -14.7,-32.7 -32.8,-32.7"
         style="fill:#cce6ff;fill-opacity:1;fill-rule:nonzero;stroke:none"
         id="path204" />
      <path
         d="m 20727.6,11231.2 h -989.8 c -18.1,0 -32.7,14.6 -32.7,32.7 0,18 14.6,32.7 32.7,32.7 h 989.8 c 18.1,0 32.8,-14.7 32.8,-32.7 0,-18.1 -14.7,-32.7 -32.8,-32.7"
         style="fill:#cce6ff;fill-opacity:1;fill-rule:nonzero;stroke:none"
         id="path206" />
      <path
         d="m 20727.6,11081.6 h -989.8 c -18.1,0 -32.7,14.6 -32.7,32.7 0,18.1 14.6,32.7 32.7,32.7 h 989.8 c 18.1,0 32.8,-14.6 32.8,-32.7 0,-18.1 -14.7,-32.7 -32.8,-32.7"
         style="fill:#cce6ff;fill-opacity:1;fill-rule:nonzero;stroke:none"
         id="path208" />
      <path
         d="m 20727.6,10932 h -989.8 c -18.1,0 -32.7,14.6 -32.7,32.7 0,18.1 14.6,32.7 32.7,32.7 h 989.8 c 18.1,0 32.8,-14.6 32.8,-32.7 0,-18.1 -14.7,-32.7 -32.8,-32.7"
         style="fill:#cce6ff;fill-opacity:1;fill-rule:nonzero;stroke:none"
         id="path210" />
      <path
         d="m 20727.6,10782.4 h -989.8 c -18.1,0 -32.7,14.6 -32.7,32.7 0,18.1 14.6,32.7 32.7,32.7 h 989.8 c 18.1,0 32.8,-14.6 32.8,-32.7 0,-18.1 -14.7,-32.7 -32.8,-32.7"
         style="fill:#cce6ff;fill-opacity:1;fill-rule:nonzero;stroke:none"
         id="path212" />
      <path
         d="m 20727.6,10632.8 h -989.8 c -18.1,0 -32.7,14.6 -32.7,32.7 0,18.1 14.6,32.7 32.7,32.7 h 989.8 c 18.1,0 32.8,-14.6 32.8,-32.7 0,-18.1 -14.7,-32.7 -32.8,-32.7"
         style="fill:#cce6ff;fill-opacity:1;fill-rule:nonzero;stroke:none"
         id="path214" />
      <path
         d="m 20727.6,10483.2 h -989.8 c -18.1,0 -32.7,14.7 -32.7,32.7 0,18.1 14.6,32.7 32.7,32.7 h 989.8 c 18.1,0 32.8,-14.6 32.8,-32.7 0,-18 -14.7,-32.7 -32.8,-32.7"
         style="fill:#cce6ff;fill-opacity:1;fill-rule:nonzero;stroke:none"
         id="path216" />
      <path
         d="m 20727.6,10315.3 h -989.8 c -18.1,0 -32.7,14.6 -32.7,32.7 0,18.1 14.6,32.7 32.7,32.7 h 989.8 c 18.1,0 32.8,-14.6 32.8,-32.7 0,-18.1 -14.7,-32.7 -32.8,-32.7"
         style="fill:#cce6ff;fill-opacity:1;fill-rule:nonzero;stroke:none"
         id="path218" />
      <path
         d="m 20727.6,10165.7 h -989.8 c -18.1,0 -32.7,14.6 -32.7,32.7 0,18 14.6,32.7 32.7,32.7 h 989.8 c 18.1,0 32.8,-14.7 32.8,-32.7 0,-18.1 -14.7,-32.7 -32.8,-32.7"
         style="fill:#cce6ff;fill-opacity:1;fill-rule:nonzero;stroke:none"
         id="path220" />
      <path
         d="m 20727.6,10016.1 h -989.8 c -18.1,0 -32.7,14.6 -32.7,32.7 0,18.1 14.6,32.7 32.7,32.7 h 989.8 c 18.1,0 32.8,-14.6 32.8,-32.7 0,-18.1 -14.7,-32.7 -32.8,-32.7"
         style="fill:#cce6ff;fill-opacity:1;fill-rule:nonzero;stroke:none"
         id="path222" />
      <path
         d="m 20727.6,9866.5 h -989.8 c -18.1,0 -32.7,14.6 -32.7,32.7 0,18.1 14.6,32.7 32.7,32.7 h 989.8 c 18.1,0 32.8,-14.6 32.8,-32.7 0,-18.1 -14.7,-32.7 -32.8,-32.7"
         style="fill:#cce6ff;fill-opacity:1;fill-rule:nonzero;stroke:none"
         id="path224" />
      <path
         d="m 20727.6,9716.9 h -989.8 c -18.1,0 -32.7,14.6 -32.7,32.7 0,18.1 14.6,32.7 32.7,32.7 h 989.8 c 18.1,0 32.8,-14.6 32.8,-32.7 0,-18.1 -14.7,-32.7 -32.8,-32.7"
         style="fill:#cce6ff;fill-opacity:1;fill-rule:nonzero;stroke:none"
         id="path226" />
      <path
         d="m 20727.6,9567.3 h -989.8 c -18.1,0 -32.7,14.6 -32.7,32.7 0,18.1 14.6,32.7 32.7,32.7 h 989.8 c 18.1,0 32.8,-14.6 32.8,-32.7 0,-18.1 -14.7,-32.7 -32.8,-32.7"
         style="fill:#cce6ff;fill-opacity:1;fill-rule:nonzero;stroke:none"
         id="path228" />
      <path
         d="m 20727.6,14075.5 h -989.8 c -18.1,0 -32.7,14.6 -32.7,32.7 0,18 14.6,32.7 32.7,32.7 h 989.8 c 18.1,0 32.8,-14.7 32.8,-32.7 0,-18.1 -14.7,-32.7 -32.8,-32.7"
         style="fill:#cce6ff;fill-opacity:1;fill-rule:nonzero;stroke:none"
         id="path230" />
      <path
         d="m 20727.6,13925.9 h -989.8 c -18.1,0 -32.7,14.6 -32.7,32.7 0,18.1 14.6,32.7 32.7,32.7 h 989.8 c 18.1,0 32.8,-14.6 32.8,-32.7 0,-18.1 -14.7,-32.7 -32.8,-32.7"
         style="fill:#cce6ff;fill-opacity:1;fill-rule:nonzero;stroke:none"
         id="path232" />
      <path
         d="m 20727.6,13776.3 h -989.8 c -18.1,0 -32.7,14.6 -32.7,32.7 0,18.1 14.6,32.7 32.7,32.7 h 989.8 c 18.1,0 32.8,-14.6 32.8,-32.7 0,-18.1 -14.7,-32.7 -32.8,-32.7"
         style="fill:#cce6ff;fill-opacity:1;fill-rule:nonzero;stroke:none"
         id="path234" />
      <path
         d="m 20727.6,13626.7 h -989.8 c -18.1,0 -32.7,14.6 -32.7,32.7 0,18.1 14.6,32.7 32.7,32.7 h 989.8 c 18.1,0 32.8,-14.6 32.8,-32.7 0,-18.1 -14.7,-32.7 -32.8,-32.7"
         style="fill:#cce6ff;fill-opacity:1;fill-rule:nonzero;stroke:none"
         id="path236" />
      <path
         d="m 20727.6,13477.1 h -989.8 c -18.1,0 -32.7,14.6 -32.7,32.7 0,18.1 14.6,32.7 32.7,32.7 h 989.8 c 18.1,0 32.8,-14.6 32.8,-32.7 0,-18.1 -14.7,-32.7 -32.8,-32.7"
         style="fill:#cce6ff;fill-opacity:1;fill-rule:nonzero;stroke:none"
         id="path238" />
      <path
         d="m 20727.6,13327.5 h -989.8 c -18.1,0 -32.7,14.6 -32.7,32.7 v 0 c 0,18.1 14.6,32.7 32.7,32.7 h 989.8 c 18.1,0 32.8,-14.6 32.8,-32.7 v 0 c 0,-18.1 -14.7,-32.7 -32.8,-32.7"
         style="fill:#cce6ff;fill-opacity:1;fill-rule:nonzero;stroke:none"
         id="path240" />
      <path
         d="m 20727.6,13177.9 h -989.8 c -18.1,0 -32.7,14.7 -32.7,32.7 0,18.1 14.6,32.7 32.7,32.7 h 989.8 c 18.1,0 32.8,-14.6 32.8,-32.7 0,-18 -14.7,-32.7 -32.8,-32.7"
         style="fill:#cce6ff;fill-opacity:1;fill-rule:nonzero;stroke:none"
         id="path242" />
      <path
         d="m 20727.6,13028.3 h -989.8 c -18.1,0 -32.7,14.6 -32.7,32.7 v 0 c 0,18.1 14.6,32.7 32.7,32.7 h 989.8 c 18.1,0 32.8,-14.6 32.8,-32.7 v 0 c 0,-18.1 -14.7,-32.7 -32.8,-32.7"
         style="fill:#cce6ff;fill-opacity:1;fill-rule:nonzero;stroke:none"
         id="path244" />
      <path
         d="m 20727.6,12878.7 h -989.8 c -18.1,0 -32.7,14.7 -32.7,32.7 0,18.1 14.6,32.7 32.7,32.7 h 989.8 c 18.1,0 32.8,-14.6 32.8,-32.7 0,-18 -14.7,-32.7 -32.8,-32.7"
         style="fill:#cce6ff;fill-opacity:1;fill-rule:nonzero;stroke:none"
         id="path246" />
      <path
         d="m 19389.7,12539.9 h -1470 c -18,0 -32.7,14.6 -32.7,32.7 0,18.1 14.7,32.7 32.7,32.7 h 1470 c 18,0 32.7,-14.6 32.7,-32.7 0,-18.1 -14.7,-32.7 -32.7,-32.7"
         style="fill:#cce6ff;fill-opacity:1;fill-rule:nonzero;stroke:none"
         id="path248" />
      <path
         d="m 19389.7,12390.3 h -1470 c -18,0 -32.7,14.6 -32.7,32.7 0,18.1 14.7,32.7 32.7,32.7 h 1470 c 18,0 32.7,-14.6 32.7,-32.7 0,-18.1 -14.7,-32.7 -32.7,-32.7"
         style="fill:#cce6ff;fill-opacity:1;fill-rule:nonzero;stroke:none"
         id="path250" />
      <path
         d="m 19389.7,12240.7 h -1470 c -18,0 -32.7,14.6 -32.7,32.7 0,18.1 14.7,32.7 32.7,32.7 h 1470 c 18,0 32.7,-14.6 32.7,-32.7 0,-18.1 -14.7,-32.7 -32.7,-32.7"
         style="fill:#cce6ff;fill-opacity:1;fill-rule:nonzero;stroke:none"
         id="path252" />
      <path
         d="m 19389.7,12091.1 h -1470 c -18,0 -32.7,14.6 -32.7,32.7 0,18.1 14.7,32.7 32.7,32.7 h 1470 c 18,0 32.7,-14.6 32.7,-32.7 0,-18.1 -14.7,-32.7 -32.7,-32.7"
         style="fill:#cce6ff;fill-opacity:1;fill-rule:nonzero;stroke:none"
         id="path254" />
      <path
         d="m 19389.7,11941.5 h -1470 c -18,0 -32.7,14.7 -32.7,32.7 0,18.1 14.7,32.7 32.7,32.7 h 1470 c 18,0 32.7,-14.6 32.7,-32.7 0,-18 -14.7,-32.7 -32.7,-32.7"
         style="fill:#cce6ff;fill-opacity:1;fill-rule:nonzero;stroke:none"
         id="path256" />
      <path
         d="m 19389.7,11791.9 h -1470 c -18,0 -32.7,14.7 -32.7,32.7 0,18.1 14.7,32.7 32.7,32.7 h 1470 c 18,0 32.7,-14.6 32.7,-32.7 0,-18 -14.7,-32.7 -32.7,-32.7"
         style="fill:#cce6ff;fill-opacity:1;fill-rule:nonzero;stroke:none"
         id="path258" />
      <path
         d="m 19389.7,11642.3 h -1470 c -18,0 -32.7,14.7 -32.7,32.7 0,18.1 14.7,32.7 32.7,32.7 h 1470 c 18,0 32.7,-14.6 32.7,-32.7 0,-18 -14.7,-32.7 -32.7,-32.7"
         style="fill:#cce6ff;fill-opacity:1;fill-rule:nonzero;stroke:none"
         id="path260" />
      <path
         d="m 19389.7,11492.7 h -1470 c -18,0 -32.7,14.7 -32.7,32.7 0,18.1 14.7,32.7 32.7,32.7 h 1470 c 18,0 32.7,-14.6 32.7,-32.7 0,-18 -14.7,-32.7 -32.7,-32.7"
         style="fill:#cce6ff;fill-opacity:1;fill-rule:nonzero;stroke:none"
         id="path262" />
      <path
         d="m 19389.7,11343.1 h -1470 c -18,0 -32.7,14.7 -32.7,32.7 0,18.1 14.7,32.7 32.7,32.7 h 1470 c 18,0 32.7,-14.6 32.7,-32.7 0,-18 -14.7,-32.7 -32.7,-32.7"
         style="fill:#cce6ff;fill-opacity:1;fill-rule:nonzero;stroke:none"
         id="path264" />
      <path
         d="m 19389.7,11193.5 h -1470 c -18,0 -32.7,14.7 -32.7,32.7 0,18.1 14.7,32.7 32.7,32.7 h 1470 c 18,0 32.7,-14.6 32.7,-32.7 0,-18 -14.7,-32.7 -32.7,-32.7"
         style="fill:#cce6ff;fill-opacity:1;fill-rule:nonzero;stroke:none"
         id="path266" />
      <path
         d="m 19389.7,11043.9 h -1470 c -18,0 -32.7,14.7 -32.7,32.7 0,18.1 14.7,32.8 32.7,32.8 h 1470 c 18,0 32.7,-14.7 32.7,-32.8 0,-18 -14.7,-32.7 -32.7,-32.7"
         style="fill:#cce6ff;fill-opacity:1;fill-rule:nonzero;stroke:none"
         id="path268" />
      <path
         d="m 19389.7,10894.4 h -1470 c -18,0 -32.7,14.6 -32.7,32.7 0,18 14.7,32.7 32.7,32.7 h 1470 c 18,0 32.7,-14.7 32.7,-32.7 0,-18.1 -14.7,-32.7 -32.7,-32.7"
         style="fill:#cce6ff;fill-opacity:1;fill-rule:nonzero;stroke:none"
         id="path270" />
      <path
         d="m 19389.7,10744.8 h -1470 c -18,0 -32.7,14.6 -32.7,32.7 0,18 14.7,32.7 32.7,32.7 h 1470 c 18,0 32.7,-14.7 32.7,-32.7 0,-18.1 -14.7,-32.7 -32.7,-32.7"
         style="fill:#cce6ff;fill-opacity:1;fill-rule:nonzero;stroke:none"
         id="path272" />
      <path
         d="m 19389.7,10595.2 h -1470 c -18,0 -32.7,14.6 -32.7,32.7 0,18 14.7,32.7 32.7,32.7 h 1470 c 18,0 32.7,-14.7 32.7,-32.7 0,-18.1 -14.7,-32.7 -32.7,-32.7"
         style="fill:#cce6ff;fill-opacity:1;fill-rule:nonzero;stroke:none"
         id="path274" />
      <path
         d="m 19389.7,10445.6 h -1470 c -18,0 -32.7,14.6 -32.7,32.7 0,18 14.7,32.7 32.7,32.7 h 1470 c 18,0 32.7,-14.7 32.7,-32.7 0,-18.1 -14.7,-32.7 -32.7,-32.7"
         style="fill:#cce6ff;fill-opacity:1;fill-rule:nonzero;stroke:none"
         id="path276" />
      <path
         d="m 19389.7,10296 h -1470 c -18,0 -32.7,14.6 -32.7,32.7 0,18 14.7,32.7 32.7,32.7 h 1470 c 18,0 32.7,-14.7 32.7,-32.7 0,-18.1 -14.7,-32.7 -32.7,-32.7"
         style="fill:#cce6ff;fill-opacity:1;fill-rule:nonzero;stroke:none"
         id="path278" />
      <path
         d="m 19389.7,10156.3 h -1470 c -18,0 -32.7,14.6 -32.7,32.7 0,18 14.7,32.7 32.7,32.7 h 1470 c 18,0 32.7,-14.7 32.7,-32.7 0,-18.1 -14.7,-32.7 -32.7,-32.7"
         style="fill:#cce6ff;fill-opacity:1;fill-rule:nonzero;stroke:none"
         id="path280" />
      <path
         d="m 19389.7,10006.7 h -1470 c -18,0 -32.7,14.6 -32.7,32.7 0,18 14.7,32.7 32.7,32.7 h 1470 c 18,0 32.7,-14.7 32.7,-32.7 0,-18.1 -14.7,-32.7 -32.7,-32.7"
         style="fill:#cce6ff;fill-opacity:1;fill-rule:nonzero;stroke:none"
         id="path282" />
      <path
         d="m 19389.7,9857.1 h -1470 c -18,0 -32.7,14.6 -32.7,32.7 0,18 14.7,32.7 32.7,32.7 h 1470 c 18,0 32.7,-14.7 32.7,-32.7 0,-18.1 -14.7,-32.7 -32.7,-32.7"
         style="fill:#cce6ff;fill-opacity:1;fill-rule:nonzero;stroke:none"
         id="path284" />
      <path
         d="m 19389.7,9707.5 h -1470 c -18,0 -32.7,14.6 -32.7,32.7 0,18 14.7,32.7 32.7,32.7 h 1470 c 18,0 32.7,-14.7 32.7,-32.7 0,-18.1 -14.7,-32.7 -32.7,-32.7"
         style="fill:#cce6ff;fill-opacity:1;fill-rule:nonzero;stroke:none"
         id="path286" />
      <path
         d="m 19389.7,9557.9 h -1470 c -18,0 -32.7,14.6 -32.7,32.7 0,18 14.7,32.7 32.7,32.7 h 1470 c 18,0 32.7,-14.7 32.7,-32.7 0,-18.1 -14.7,-32.7 -32.7,-32.7"
         style="fill:#cce6ff;fill-opacity:1;fill-rule:nonzero;stroke:none"
         id="path288" />
      <path
         d="m 20732.3,11634.2 h -999.2 c -15.5,0 -28,12.6 -28,28.1 v 923.1 c 0,15.5 12.5,28.1 28,28.1 h 999.2 c 15.5,0 28.1,-12.6 28.1,-28.1 v -923.1 c 0,-15.5 -12.6,-28.1 -28.1,-28.1"
         style="fill:#cce6ff;fill-opacity:1;fill-rule:nonzero;stroke:none"
         id="path290" />
      <path
         d="m 19384.5,12878.7 h -1459.7 c -20.9,0 -37.8,17 -37.8,37.9 v 2233.6 c 0,20.9 16.9,37.9 37.8,37.9 h 1459.7 c 20.9,0 37.9,-17 37.9,-37.9 v -2233.6 c 0,-20.9 -17,-37.9 -37.9,-37.9"
         style="fill:#cce6ff;fill-opacity:1;fill-rule:nonzero;stroke:none"
         id="path292" />
      <path
         d="m 19255.2,14374.7 h -1201 c -12.6,0 -22.8,10.2 -22.8,22.8 v 623.8 c 0,12.6 10.2,22.8 22.8,22.8 h 1201 c 12.6,0 22.8,-10.2 22.8,-22.8 v -623.8 c 0,-12.6 -10.2,-22.8 -22.8,-22.8"
         style="fill:#f4f7fd;fill-opacity:1;fill-rule:nonzero;stroke:none"
         id="path294" />
      <path
         d="m 19255.2,13623.9 h -1201 c -12.6,0 -22.8,10.2 -22.8,22.8 v 623.8 c 0,12.6 10.2,22.8 22.8,22.8 h 1201 c 12.6,0 22.8,-10.2 22.8,-22.8 v -623.8 c 0,-12.6 -10.2,-22.8 -22.8,-22.8"
         style="fill:#f4f7fd;fill-opacity:1;fill-rule:nonzero;stroke:none"
         id="path296" />
      <path
         d="m 18598.3,12986.8 h -547.1 c -11,0 -19.8,8.8 -19.8,19.8 v 516.1 c 0,10.9 8.8,19.8 19.8,19.8 h 547.1 c 11,0 19.9,-8.9 19.9,-19.8 v -516.1 c 0,-11 -8.9,-19.8 -19.9,-19.8"
         style="fill:#f4f7fd;fill-opacity:1;fill-rule:nonzero;stroke:none"
         id="path298" />
      <path
         d="M 19257.9,12986.8 H 18697 c -11.1,0 -20.1,8.9 -20.1,20 v 515.6 c 0,11.1 9,20.1 20.1,20.1 h 560.9 c 11.1,0 20.1,-9 20.1,-20.1 v -515.6 c 0,-11.1 -9,-20 -20.1,-20"
         style="fill:#f4f7fd;fill-opacity:1;fill-rule:nonzero;stroke:none"
         id="path300" />
      <path
         d="m 16941.2,9376.1 h -3164.1 c -68.1,0 -123.2,55.2 -123.2,123.2 V 15277 c 0,68 55.1,123.2 123.2,123.2 h 3164.1 c 68.1,0 123.2,-55.2 123.2,-123.2 V 9499.3 c 0,-68 -55.1,-123.2 -123.2,-123.2"
         style="fill:#f4f7fd;fill-opacity:1;fill-rule:nonzero;stroke:none"
         id="path302" />
      <path
         d="M 15211.5,13778.5 H 13981 c -31.4,0 -56.8,25.4 -56.8,56.8 v 1230.6 c 0,31.3 25.4,56.7 56.8,56.7 h 1230.5 c 31.4,0 56.8,-25.4 56.8,-56.7 v -1230.6 c 0,-31.4 -25.4,-56.8 -56.8,-56.8"
         style="fill:#cce6ff;fill-opacity:1;fill-rule:nonzero;stroke:none"
         id="path304" />
      <path
         d="m 16800.7,15041 h -953.9 c -16.4,0 -29.6,13.3 -29.6,29.6 v 22.4 c 0,16.4 13.2,29.6 29.6,29.6 h 953.9 c 16.3,0 29.6,-13.2 29.6,-29.6 v -22.4 c 0,-16.3 -13.3,-29.6 -29.6,-29.6"
         style="fill:#cce6ff;fill-opacity:1;fill-rule:nonzero;stroke:none"
         id="path306" />
      <path
         d="m 16800.7,14898.5 h -953.9 c -16.4,0 -29.6,13.3 -29.6,29.7 v 22.3 c 0,16.4 13.2,29.7 29.6,29.7 h 953.9 c 16.3,0 29.6,-13.3 29.6,-29.7 v -22.3 c 0,-16.4 -13.3,-29.7 -29.6,-29.7"
         style="fill:#cce6ff;fill-opacity:1;fill-rule:nonzero;stroke:none"
         id="path308" />
      <path
         d="m 16800.7,14756.1 h -953.9 c -16.4,0 -29.6,13.3 -29.6,29.7 v 22.3 c 0,16.4 13.2,29.7 29.6,29.7 h 953.9 c 16.3,0 29.6,-13.3 29.6,-29.7 v -22.3 c 0,-16.4 -13.3,-29.7 -29.6,-29.7"
         style="fill:#cce6ff;fill-opacity:1;fill-rule:nonzero;stroke:none"
         id="path310" />
      <path
         d="m 16800.7,14613.7 h -953.9 c -16.4,0 -29.6,13.2 -29.6,29.6 v 22.4 c 0,16.3 13.2,29.6 29.6,29.6 h 953.9 c 16.3,0 29.6,-13.3 29.6,-29.6 v -22.4 c 0,-16.4 -13.3,-29.6 -29.6,-29.6"
         style="fill:#cce6ff;fill-opacity:1;fill-rule:nonzero;stroke:none"
         id="path312" />
      <path
         d="m 16800.7,14471.2 h -953.9 c -16.4,0 -29.6,13.3 -29.6,29.7 v 22.3 c 0,16.4 13.2,29.7 29.6,29.7 h 953.9 c 16.3,0 29.6,-13.3 29.6,-29.7 v -22.3 c 0,-16.4 -13.3,-29.7 -29.6,-29.7"
         style="fill:#cce6ff;fill-opacity:1;fill-rule:nonzero;stroke:none"
         id="path314" />
      <path
         d="m 16800.7,14328.8 h -953.9 c -16.4,0 -29.6,13.2 -29.6,29.6 v 22.4 c 0,16.4 13.2,29.6 29.6,29.6 h 953.9 c 16.3,0 29.6,-13.2 29.6,-29.6 v -22.4 c 0,-16.4 -13.3,-29.6 -29.6,-29.6"
         style="fill:#cce6ff;fill-opacity:1;fill-rule:nonzero;stroke:none"
         id="path316" />
      <path
         d="m 16800.7,14186.3 h -953.9 c -16.4,0 -29.6,13.3 -29.6,29.7 v 22.3 c 0,16.4 13.2,29.7 29.6,29.7 h 953.9 c 16.3,0 29.6,-13.3 29.6,-29.7 v -22.3 c 0,-16.4 -13.3,-29.7 -29.6,-29.7"
         style="fill:#cce6ff;fill-opacity:1;fill-rule:nonzero;stroke:none"
         id="path318" />
      <path
         d="m 16800.7,14043.9 h -953.9 c -16.4,0 -29.6,13.3 -29.6,29.6 v 22.4 c 0,16.4 13.2,29.6 29.6,29.6 h 953.9 c 16.3,0 29.6,-13.2 29.6,-29.6 v -22.4 c 0,-16.3 -13.3,-29.6 -29.6,-29.6"
         style="fill:#cce6ff;fill-opacity:1;fill-rule:nonzero;stroke:none"
         id="path320" />
      <path
         d="m 16800.7,13901.4 h -953.9 c -16.4,0 -29.6,13.3 -29.6,29.7 v 22.3 c 0,16.4 13.2,29.7 29.6,29.7 h 953.9 c 16.3,0 29.6,-13.3 29.6,-29.7 v -22.3 c 0,-16.4 -13.3,-29.7 -29.6,-29.7"
         style="fill:#cce6ff;fill-opacity:1;fill-rule:nonzero;stroke:none"
         id="path322" />
      <path
         d="m 16800.7,13759 h -953.9 c -16.4,0 -29.6,13.3 -29.6,29.7 v 22.3 c 0,16.4 13.2,29.7 29.6,29.7 h 953.9 c 16.3,0 29.6,-13.3 29.6,-29.7 v -22.3 c 0,-16.4 -13.3,-29.7 -29.6,-29.7"
         style="fill:#cce6ff;fill-opacity:1;fill-rule:nonzero;stroke:none"
         id="path324" />
      <path
         d="m 15596.2,14991.1 c 0,-39.4 -31.9,-71.3 -71.3,-71.3 -39.3,0 -71.2,31.9 -71.2,71.3 0,39.3 31.9,71.2 71.2,71.2 39.4,0 71.3,-31.9 71.3,-71.2"
         style="fill:#cce6ff;fill-opacity:1;fill-rule:nonzero;stroke:none"
         id="path326" />
      <path
         d="m 15596.2,14431.1 c 0,-39.4 -31.9,-71.3 -71.3,-71.3 -39.3,0 -71.2,31.9 -71.2,71.3 0,39.3 31.9,71.2 71.2,71.2 39.4,0 71.3,-31.9 71.3,-71.2"
         style="fill:#cce6ff;fill-opacity:1;fill-rule:nonzero;stroke:none"
         id="path328" />
      <path
         d="m 15596.2,13871.1 c 0,-39.4 -31.9,-71.3 -71.3,-71.3 -39.3,0 -71.2,31.9 -71.2,71.3 0,39.3 31.9,71.2 71.2,71.2 39.4,0 71.3,-31.9 71.3,-71.2"
         style="fill:#cce6ff;fill-opacity:1;fill-rule:nonzero;stroke:none"
         id="path330" />
      <path
         d="m 16830.3,13392.9 h -2906.1 v 166.3 h 2906.1 v -166.3"
         style="fill:#cce6ff;fill-opacity:1;fill-rule:nonzero;stroke:none"
         id="path332" />
      <path
         d="m 16830.3,13104.7 h -2906.1 v 166.2 h 2906.1 v -166.2"
         style="fill:#cce6ff;fill-opacity:1;fill-rule:nonzero;stroke:none"
         id="path334" />
      <path
         d="m 15453.7,12816.4 h -1529.5 v 166.2 h 1529.5 v -166.2"
         style="fill:#cce6ff;fill-opacity:1;fill-rule:nonzero;stroke:none"
         id="path336" />
      <path
         d="m 16808.2,12503 h -2861.9 c -12.2,0 -22.1,9.9 -22.1,22.1 v 54.5 c 0,12.2 9.9,22.1 22.1,22.1 h 2861.9 c 12.2,0 22.1,-9.9 22.1,-22.1 v -54.5 c 0,-12.2 -9.9,-22.1 -22.1,-22.1"
         style="fill:#cce6ff;fill-opacity:1;fill-rule:nonzero;stroke:none"
         id="path338" />
      <path
         d="m 16808.2,12301 h -2861.9 c -12.2,0 -22.1,9.9 -22.1,22.1 v 54.5 c 0,12.2 9.9,22.1 22.1,22.1 h 2861.9 c 12.2,0 22.1,-9.9 22.1,-22.1 v -54.5 c 0,-12.2 -9.9,-22.1 -22.1,-22.1"
         style="fill:#cce6ff;fill-opacity:1;fill-rule:nonzero;stroke:none"
         id="path340" />
      <path
         d="m 16808.2,12099 h -2861.9 c -12.2,0 -22.1,9.9 -22.1,22.1 v 54.4 c 0,12.2 9.9,22.1 22.1,22.1 h 2861.9 c 12.2,0 22.1,-9.9 22.1,-22.1 v -54.4 c 0,-12.2 -9.9,-22.1 -22.1,-22.1"
         style="fill:#cce6ff;fill-opacity:1;fill-rule:nonzero;stroke:none"
         id="path342" />
      <path
         d="m 16808.2,11896.9 h -2861.9 c -12.2,0 -22.1,9.9 -22.1,22.1 v 54.5 c 0,12.2 9.9,22.1 22.1,22.1 h 2861.9 c 12.2,0 22.1,-9.9 22.1,-22.1 v -54.5 c 0,-12.2 -9.9,-22.1 -22.1,-22.1"
         style="fill:#cce6ff;fill-opacity:1;fill-rule:nonzero;stroke:none"
         id="path344" />
      <path
         d="m 16808.2,11694.9 h -2861.9 c -12.2,0 -22.1,9.9 -22.1,22.1 v 54.4 c 0,12.3 9.9,22.2 22.1,22.2 h 2861.9 c 12.2,0 22.1,-9.9 22.1,-22.2 v -54.4 c 0,-12.2 -9.9,-22.1 -22.1,-22.1"
         style="fill:#cce6ff;fill-opacity:1;fill-rule:nonzero;stroke:none"
         id="path346" />
      <path
         d="m 16808.2,11492.8 h -2861.9 c -12.2,0 -22.1,9.9 -22.1,22.2 v 54.4 c 0,12.2 9.9,22.1 22.1,22.1 h 2861.9 c 12.2,0 22.1,-9.9 22.1,-22.1 v -54.4 c 0,-12.3 -9.9,-22.2 -22.1,-22.2"
         style="fill:#cce6ff;fill-opacity:1;fill-rule:nonzero;stroke:none"
         id="path348" />
      <path
         d="m 15378.9,11290.8 h -1439 c -8.7,0 -15.7,7.1 -15.7,15.7 v 67.3 c 0,8.6 7,15.7 15.7,15.7 h 1439 c 8.7,0 15.7,-7.1 15.7,-15.7 v -67.3 c 0,-8.6 -7,-15.7 -15.7,-15.7"
         style="fill:#cce6ff;fill-opacity:1;fill-rule:nonzero;stroke:none"
         id="path350" />
      <path
         d="m 14705.1,10092 h -701.6 c -43.8,0 -79.3,35.5 -79.3,79.3 v 746.9 c 0,43.7 35.5,79.2 79.3,79.2 h 701.6 c 43.8,0 79.2,-35.5 79.2,-79.2 v -746.9 c 0,-43.8 -35.4,-79.3 -79.2,-79.3"
         style="fill:#cce6ff;fill-opacity:1;fill-rule:nonzero;stroke:none"
         id="path352" />
      <path
         d="m 15728.1,10095.9 h -701.6 c -43.8,0 -79.3,35.5 -79.3,79.3 v 746.9 c 0,43.7 35.5,79.2 79.3,79.2 h 701.6 c 43.7,0 79.2,-35.5 79.2,-79.2 v -746.9 c 0,-43.8 -35.5,-79.3 -79.2,-79.3"
         style="fill:#cce6ff;fill-opacity:1;fill-rule:nonzero;stroke:none"
         id="path354" />
      <path
         d="m 16751.1,10099.8 h -701.7 c -43.7,0 -79.2,35.5 -79.2,79.3 v 746.9 c 0,43.7 35.5,79.2 79.2,79.2 h 701.7 c 43.7,0 79.2,-35.5 79.2,-79.2 v -746.9 c 0,-43.8 -35.5,-79.3 -79.2,-79.3"
         style="fill:#cce6ff;fill-opacity:1;fill-rule:nonzero;stroke:none"
         id="path356" />
      <path
         d="m 16817.3,9834 h -2880.1 c -7.2,0 -13,5.8 -13,13 v 59.7 c 0,7.2 5.8,13 13,13 h 2880.1 c 7.2,0 13,-5.8 13,-13 V 9847 c 0,-7.2 -5.8,-13 -13,-13"
         style="fill:#cce6ff;fill-opacity:1;fill-rule:nonzero;stroke:none"
         id="path358" />
      <path
         d="m 16817.3,9674.1 h -2880.1 c -7.2,0 -13,5.8 -13,13 v 59.6 c 0,7.2 5.8,13 13,13 h 2880.1 c 7.2,0 13,-5.8 13,-13 v -59.6 c 0,-7.2 -5.8,-13 -13,-13"
         style="fill:#cce6ff;fill-opacity:1;fill-rule:nonzero;stroke:none"
         id="path360" />
      <path
         d="m 15652.4,9514.1 h -1718.1 c -5.6,0 -10.1,4.5 -10.1,10.1 v 65.5 c 0,5.6 4.5,10.1 10.1,10.1 h 1718.1 c 5.5,0 10,-4.5 10,-10.1 v -65.5 c 0,-5.6 -4.5,-10.1 -10,-10.1"
         style="fill:#cce6ff;fill-opacity:1;fill-rule:nonzero;stroke:none"
         id="path362" />
      <path
         d="M 10258.1,12900.4 H 7994.49 c -62.9,0 -113.88,51 -113.88,113.9 v 1483.2 c 0,62.9 50.98,113.9 113.88,113.9 h 2263.61 c 62.9,0 113.9,-51 113.9,-113.9 v -1483.2 c 0,-62.9 -51,-113.9 -113.9,-113.9"
         style="fill:#3c94f8;fill-opacity:1;fill-rule:nonzero;stroke:none"
         id="path364" />
      <path
         d="m 8522.21,13606.2 c 0,-59.9 -8.87,-106.5 -26.61,-139.6 -32.9,-60.6 -95.49,-90.9 -187.74,-90.9 -53.23,0 -98.71,14.4 -136.45,43.2 -37.74,28.9 -56.62,80.2 -56.62,154 v 50.7 h 90.38 v -50.7 c 0,-38.7 8.63,-67.8 25.91,-87.2 17.28,-19.5 44.16,-29.3 80.65,-29.3 51.34,0 84.92,17.6 100.75,52.7 9.68,21.6 14.53,62.3 14.53,122.3 v 473.1 h 95.2 v -498.3"
         style="fill:#102a54;fill-opacity:1;fill-rule:nonzero;stroke:none"
         id="path366" />
      <path
         d="m 9168.14,13550.5 c 37.86,60.8 56.79,130.7 56.79,209.7 0,83.5 -21.83,150.7 -65.49,201.7 -43.66,50.9 -103.34,76.4 -179.06,76.4 -73.46,0 -133.39,-25.2 -179.79,-75.7 -46.39,-50.5 -69.59,-124.9 -69.59,-223.2 0,-78.7 19.89,-145.1 59.69,-199.1 39.79,-54 104.31,-81 193.56,-81 84.74,0 146.03,30.4 183.89,91.2 z m 84.82,452.5 c 47.04,-62.8 70.56,-143.2 70.56,-241.1 0,-106.1 -26.9,-194.2 -80.71,-264.4 -63.15,-82.5 -153.2,-123.7 -270.16,-123.7 -109.23,0 -195.09,36 -257.6,108.2 -55.75,69.6 -83.61,157.6 -83.61,263.9 0,96 23.84,178.2 71.53,246.5 61.21,87.6 151.75,131.4 271.61,131.4 125.33,0 218.13,-40.2 278.38,-120.8"
         style="fill:#102a54;fill-opacity:1;fill-rule:nonzero;stroke:none"
         id="path368" />
      <path
         d="m 9739.19,13476.7 c 59.53,0 101.97,17.1 127.34,51.2 15.93,21.6 23.91,47.7 23.91,78.3 0,51.6 -23.27,86.7 -69.78,105.4 -24.72,10 -57.4,15 -98.06,15 h -192.7 v -249.9 z m -32.51,327.7 c 41.02,0 72.93,5.6 95.72,16.9 35.81,17.7 53.72,49.6 53.72,95.7 0,46.4 -19.04,77.6 -57.13,93.8 -21.49,9 -53.41,13.5 -95.73,13.5 H 9529.9 v -219.9 z m -271.03,300.1 h 306.97 c 83.67,0 143.19,-24.8 178.54,-74.4 20.75,-29.3 31.14,-63.2 31.14,-101.5 0,-44.8 -12.73,-81.5 -38.18,-110.2 -13.22,-15.1 -32.23,-29 -57.03,-41.6 36.41,-13.8 63.63,-29.4 81.68,-46.8 31.89,-31 47.84,-73.7 47.84,-128.1 0,-45.8 -14.43,-87.2 -43.27,-124.2 -43.12,-55.4 -111.69,-83.1 -205.7,-83.1 h -301.99 v 709.9"
         style="fill:#102a54;fill-opacity:1;fill-rule:nonzero;stroke:none"
         id="path370" />
      <path
         d="m 7928.55,14657.7 c -54.52,0 -98.88,-44.4 -98.88,-98.9 v -1483.2 c 0,-54.6 44.36,-98.9 98.88,-98.9 h 1763.16 l 354.19,-462.5 c 6.9,-8.9 16.2,-6.6 18.8,-5.7 2.7,0.9 11.5,4.7 11.5,15.9 v 452.3 h 116 c 54.5,0 98.9,44.3 98.9,98.9 v 1483.2 c 0,54.5 -44.4,98.9 -98.9,98.9 z M 10059,12477.5 c -14.2,0 -27.7,6.5 -36.9,18.4 l -345.21,450.8 H 7928.55 c -71.07,0 -128.88,57.8 -128.88,128.9 v 1483.2 c 0,71 57.81,128.9 128.88,128.9 h 2263.65 c 71,0 128.9,-57.9 128.9,-128.9 v -1483.2 c 0,-71.1 -57.9,-128.9 -128.9,-128.9 h -86 v -422.3 c 0,-20.4 -12.5,-37.8 -31.8,-44.3 -5.1,-1.8 -10.3,-2.6 -15.4,-2.6"
         style="fill:#102a54;fill-opacity:1;fill-rule:nonzero;stroke:none"
         id="path372" />
      <path
         d="m 15519,15910.2 h -2263.6 c -62.9,0 -113.9,51 -113.9,113.8 v 1483.3 c 0,62.9 51,113.9 113.9,113.9 H 15519 c 62.9,0 113.9,-51 113.9,-113.9 V 16024 c 0,-62.8 -51,-113.8 -113.9,-113.8"
         style="fill:#3c94f8;fill-opacity:1;fill-rule:nonzero;stroke:none"
         id="path374" />
      <path
         d="m 13783.1,16616 c 0,-59.9 -8.8,-106.5 -26.6,-139.7 -32.9,-60.6 -95.5,-90.9 -187.7,-90.9 -53.2,0 -98.7,14.5 -136.5,43.3 -37.7,28.8 -56.6,80.2 -56.6,153.9 v 50.8 h 90.4 v -50.8 c 0,-38.6 8.6,-67.7 25.9,-87.2 17.3,-19.5 44.2,-29.2 80.7,-29.2 51.3,0 84.9,17.5 100.7,52.6 9.7,21.6 14.5,62.4 14.5,122.3 v 473.2 h 95.2 V 16616"
         style="fill:#102a54;fill-opacity:1;fill-rule:nonzero;stroke:none"
         id="path376" />
      <path
         d="m 14429.1,16560.2 c 37.8,60.8 56.8,130.7 56.8,209.7 0,83.5 -21.9,150.8 -65.5,201.7 -43.7,51 -103.4,76.5 -179.1,76.5 -73.4,0 -133.4,-25.3 -179.8,-75.7 -46.4,-50.5 -69.6,-124.9 -69.6,-223.3 0,-78.7 19.9,-145 59.7,-199 39.8,-54 104.3,-81 193.6,-81 84.7,0 146,30.3 183.9,91.1 z m 84.8,452.6 c 47,-62.9 70.6,-143.2 70.6,-241.2 0,-106 -26.9,-194.1 -80.8,-264.4 -63.1,-82.4 -153.2,-123.7 -270.1,-123.7 -109.2,0 -195.1,36.1 -257.6,108.3 -55.8,69.6 -83.6,157.5 -83.6,263.9 0,96 23.8,178.1 71.5,246.4 61.2,87.7 151.8,131.5 271.6,131.5 125.3,0 218.1,-40.3 278.4,-120.8"
         style="fill:#102a54;fill-opacity:1;fill-rule:nonzero;stroke:none"
         id="path378" />
      <path
         d="m 15000.1,16486.5 c 59.5,0 102,17 127.4,51.2 15.9,21.6 23.9,47.7 23.9,78.3 0,51.5 -23.3,86.7 -69.8,105.3 -24.7,10 -57.4,15 -98.1,15 h -192.7 v -249.8 z m -32.5,327.6 c 41,0 72.9,5.7 95.7,17 35.8,17.7 53.8,49.6 53.8,95.7 0,46.3 -19.1,77.6 -57.2,93.7 -21.5,9 -53.4,13.5 -95.7,13.5 h -173.4 v -219.9 z m -271,300.2 h 307 c 83.6,0 143.1,-24.9 178.5,-74.5 20.7,-29.3 31.1,-63.1 31.1,-101.4 0,-44.8 -12.7,-81.6 -38.1,-110.2 -13.3,-15.2 -32.3,-29 -57.1,-41.6 36.4,-13.9 63.7,-29.5 81.7,-46.9 31.9,-30.9 47.8,-73.6 47.8,-128.1 0,-45.7 -14.4,-87.1 -43.2,-124.2 -43.2,-55.4 -111.7,-83.1 -205.7,-83.1 h -302 v 710"
         style="fill:#102a54;fill-opacity:1;fill-rule:nonzero;stroke:none"
         id="path380" />
      <path
         d="m 13189.5,17667.4 c -54.5,0 -98.9,-44.4 -98.9,-98.9 v -1483.2 c 0,-54.5 44.4,-98.9 98.9,-98.9 h 1763.1 l 354.3,-462.5 c 6.8,-8.9 16.1,-6.6 18.8,-5.7 2.7,0.9 11.4,4.8 11.4,16 v 452.2 h 116 c 54.5,0 98.9,44.4 98.9,98.9 v 1483.2 c 0,54.5 -44.4,98.9 -98.9,98.9 z m 2130.4,-2180.2 c -14.2,0 -27.7,6.6 -36.8,18.5 l -345.3,450.7 h -1748.3 c -71.1,0 -128.9,57.8 -128.9,128.9 v 1483.2 c 0,71.1 57.8,128.9 128.9,128.9 h 2263.6 c 71.1,0 128.9,-57.8 128.9,-128.9 v -1483.2 c 0,-71.1 -57.8,-128.9 -128.9,-128.9 h -86 v -422.2 c 0,-20.4 -12.5,-37.8 -31.8,-44.4 -5.1,-1.7 -10.3,-2.6 -15.4,-2.6"
         style="fill:#102a54;fill-opacity:1;fill-rule:nonzero;stroke:none"
         id="path382" />
      <path
         d="m 20421.6,14964.1 h 2263.7 c 62.9,0 113.8,51 113.8,113.9 v 1483.2 c 0,62.9 -50.9,113.9 -113.8,113.9 h -2263.7 c -62.9,0 -113.9,-51 -113.9,-113.9 V 15078 c 0,-62.9 51,-113.9 113.9,-113.9"
         style="fill:#3c94f8;fill-opacity:1;fill-rule:nonzero;stroke:none"
         id="path384" />
      <path
         d="m 21100.6,15669.9 c 0,-59.9 -8.9,-106.5 -26.7,-139.7 -32.9,-60.5 -95.4,-90.8 -187.7,-90.8 -53.2,0 -98.7,14.4 -136.4,43.2 -37.8,28.9 -56.7,80.2 -56.7,154 v 50.7 h 90.4 v -50.7 c 0,-38.7 8.6,-67.8 25.9,-87.3 17.3,-19.5 44.2,-29.2 80.7,-29.2 51.3,0 84.9,17.5 100.7,52.7 9.7,21.6 14.6,62.3 14.6,122.2 v 473.2 h 95.2 v -498.3"
         style="fill:#102a54;fill-opacity:1;fill-rule:nonzero;stroke:none"
         id="path386" />
      <path
         d="m 21746.5,15614.2 c 37.8,60.7 56.8,130.6 56.8,209.6 0,83.6 -21.9,150.8 -65.5,201.8 -43.7,50.9 -103.4,76.4 -179.1,76.4 -73.4,0 -133.4,-25.3 -179.8,-75.7 -46.4,-50.5 -69.6,-124.9 -69.6,-223.2 0,-78.7 19.9,-145.1 59.7,-199.1 39.8,-54 104.3,-81 193.6,-81 84.7,0 146,30.4 183.9,91.2 z m 84.8,452.5 c 47,-62.8 70.6,-143.2 70.6,-241.2 0,-106 -26.9,-194.1 -80.7,-264.3 -63.2,-82.5 -153.2,-123.8 -270.2,-123.8 -109.2,0 -195.1,36.1 -257.6,108.3 -55.8,69.6 -83.6,157.6 -83.6,263.9 0,96 23.8,178.2 71.5,246.5 61.2,87.6 151.8,131.4 271.6,131.4 125.4,0 218.2,-40.3 278.4,-120.8"
         style="fill:#102a54;fill-opacity:1;fill-rule:nonzero;stroke:none"
         id="path388" />
      <path
         d="m 22317.5,15540.4 c 59.6,0 102,17.1 127.4,51.2 15.9,21.6 23.9,47.7 23.9,78.3 0,51.5 -23.3,86.7 -69.8,105.4 -24.7,10 -57.4,15 -98.1,15 h -192.7 v -249.9 z m -32.5,327.7 c 41,0 73,5.6 95.7,16.9 35.9,17.7 53.8,49.6 53.8,95.7 0,46.4 -19.1,77.6 -57.2,93.7 -21.5,9 -53.4,13.6 -95.7,13.6 h -173.4 v -219.9 z m -271,300.1 h 307 c 83.6,0 143.2,-24.8 178.5,-74.4 20.8,-29.4 31.1,-63.2 31.1,-101.5 0,-44.8 -12.7,-81.5 -38.1,-110.2 -13.3,-15.2 -32.3,-29 -57.1,-41.6 36.4,-13.8 63.7,-29.5 81.7,-46.9 31.9,-30.9 47.9,-73.6 47.9,-128 0,-45.8 -14.5,-87.2 -43.3,-124.2 -43.1,-55.5 -111.7,-83.2 -205.7,-83.2 h -302 v 710"
         style="fill:#102a54;fill-opacity:1;fill-rule:nonzero;stroke:none"
         id="path390" />
      <path
         d="m 20487.6,16721.3 c -54.6,0 -98.9,-44.3 -98.9,-98.9 v -1483.2 c 0,-54.5 44.3,-98.9 98.9,-98.9 h 116 v -452.2 c 0,-11.2 8.7,-15 11.4,-16 2.7,-0.9 12,-3.2 18.8,5.8 l 354.2,462.4 h 1763.2 c 54.5,0 98.9,44.4 98.9,98.9 v 1483.2 c 0,54.6 -44.4,98.9 -98.9,98.9 z m 133.2,-2180.1 c -5.1,0 -10.3,0.8 -15.4,2.5 -19.4,6.6 -31.8,24 -31.8,44.4 v 422.2 h -86 c -71.1,0 -128.9,57.9 -128.9,128.9 v 1483.2 c 0,71.1 57.8,128.9 128.9,128.9 h 2263.6 c 71.1,0 128.9,-57.8 128.9,-128.9 v -1483.2 c 0,-71 -57.8,-128.9 -128.9,-128.9 h -1748.3 l -345.3,-450.7 c -9.1,-11.9 -22.6,-18.4 -36.8,-18.4"
         style="fill:#102a54;fill-opacity:1;fill-rule:nonzero;stroke:none"
         id="path392" />
      <path
         d="m 12890.8,7174.2 c -546.6,316.3 -937.3,826.4 -1100.2,1436.6 -162.8,610 -78.4,1247 237.9,1793.6 316.2,546.6 826.4,937.3 1436.5,1100.1 610.1,162.9 1247.1,78.4 1793.7,-237.8 546.5,-316.3 937.2,-826.4 1100.1,-1436.5 162.8,-610.1 78.4,-1247.1 -237.9,-1793.7 -316.2,-546.6 -826.4,-937.3 -1436.5,-1100.1 -610.1,-162.9 -1247.1,-78.4 -1793.6,237.8 m 3550.4,677 c 365.7,632.1 463.4,1368.8 275.1,2074.4 -188.4,705.6 -640.2,1295.6 -1272.3,1661.3 -632.1,365.8 -1368.8,463.5 -2074.4,275.1 -705.6,-188.3 -1295.6,-640.2 -1661.4,-1272.3 -365.7,-632.1 -463.4,-1368.8 -275,-2074.4 154.4,-578.7 486.3,-1079.6 949.4,-1442.8 -46.3,-2.6 -90.3,-27.7 -115.3,-70.7 l -1971.8,-3408 c -39.4,-68 -16.1,-155 51.9,-194.4 l 538.3,-311.4 c 68,-39.4 155,-16.2 194.3,51.8 l 1971.9,3408 c 24.9,43.1 24.7,93.8 3.9,135.2 545.7,-220.5 1145.3,-258.6 1724.1,-104.1 705.5,188.4 1295.5,640.2 1661.3,1272.3"
         style="fill:#102a54;fill-opacity:1;fill-rule:nonzero;stroke:none"
         id="path394" />
      <path
         d="m 16040.1,7985 c -641.7,-1109 -2060.9,-1487.9 -3169.8,-846.2 -1109,641.7 -1487.9,2060.8 -846.2,3169.8 641.7,1109 2060.8,1487.8 3169.8,846.2 1109,-641.7 1487.8,-2060.9 846.2,-3169.8"
         style="fill:#ffffff;fill-opacity:1;fill-rule:nonzero;stroke:none"
         id="path396" />
      <path
         d="m 14029.9,6826.5 c -202.2,0 -405.7,26.5 -605.5,80.8 l 2574.4,1009 c -437.4,-699.9 -1193,-1089.8 -1968.9,-1089.8 m -1371.7,450.8 c -4,2.9 -7.9,5.8 -11.8,8.7 -83.9,81.4 -161.4,168.7 -232,261.4 L 16351.7,9091 c -2.7,-116.3 -14.1,-232.8 -34.6,-348.6 L 12658.2,7277.3 m -678.6,1231.1 c -29,141.5 -44.9,283.9 -48,425.8 l 3987.3,1563.2 c -186.2,260.6 -429.7,486.5 -725,657.4 -27,15.6 -54.3,30.7 -81.6,45.1 v 0 c 27.3,-14.4 54.6,-29.5 81.6,-45.1 742.9,-429.9 1158.2,-1208.7 1158.4,-2009.4 v 0 c -0.1,353.5 -81.1,702.8 -235.5,1019.7 L 11979.6,8508.4 m 325.9,1747.4 c 318.7,498.7 805.4,855.1 1380.9,1008.8 203,54.2 409,81 613.6,81 163.3,0 325.7,-17.1 485.1,-50.9 l -2479.6,-1038.9"
         style="fill:#e0f0ff;fill-opacity:1;fill-rule:nonzero;stroke:none"
         id="path398" />
      <g
         id="g400">
        <g
           id="g402"
           clip-path="url(#clipPath406)">
          <path
             d="m 11931.6,8934.2 c -9.1,427.5 98.7,850.7 318.3,1230.3 17.9,30.9 36.4,61.3 55.6,91.3 l 2479.6,1038.9 c 110.7,-23.5 220.1,-55.2 327.2,-94.8 27.3,-14.4 54.6,-29.5 81.6,-45.1 295.3,-170.9 538.8,-396.8 725,-657.4 L 11931.6,8934.2"
             style="fill:#b6d8fd;fill-opacity:1;fill-rule:nonzero;stroke:none"
             id="path408" />
          <path
             d="m 12414.4,7547.4 c -184.4,242.1 -321.4,520.4 -402.3,823.4 -12.2,45.7 -23.1,91.7 -32.5,137.6 l 4137.2,1656.7 c 154.4,-316.9 235.4,-666.2 235.5,-1019.7 0.1,-18.1 -0.2,-36.3 -0.6,-54.4 L 12414.4,7547.4"
             style="fill:#c2dffe;fill-opacity:1;fill-rule:nonzero;stroke:none"
             id="path410" />
          <path
             d="m 13424.4,6907.3 c -189.7,51.6 -375.9,128.4 -554.1,231.5 -74,42.8 -144.7,89.1 -212.1,138.5 l 3658.9,1465.1 c -4.9,-27.5 -10.2,-54.8 -16.1,-82.2 -2.1,-10 -4.4,-20 -6.6,-30 -6.3,-27.3 -13.1,-54.6 -20.3,-81.7 -51.6,-193 -129.2,-382.4 -234,-563.5 -13.5,-23.3 -27.2,-46.1 -41.3,-68.7 l -2574.4,-1009"
             style="fill:#cfe7fe;fill-opacity:1;fill-rule:nonzero;stroke:none"
             id="path412" />
        </g>
      </g>
      <path
         d="m 12685,5291.1 c -97.8,38.5 -195.6,76.9 -293.6,115.1 l 660.5,1141.6 c 24.9,43.1 24.7,93.8 3.9,135.2 324.4,-131.1 668,-197.7 1014.8,-197.7 236.5,0 474.6,31 709.3,93.6 705.5,188.4 1295.5,640.2 1661.3,1272.3 128.2,221.5 223.4,455.9 285,697.3 h 271.1 c -52.2,-326 -164.4,-642.9 -334.7,-937.2 -365.7,-632.1 -955.7,-1084 -1661.3,-1272.3 -234.7,-62.7 -472.7,-93.7 -709.3,-93.6 -346.8,0 -690.4,66.6 -1014.8,197.6 20.8,-41.4 21.1,-92.1 -3.8,-135.1 L 12685,5291.1 m -341.1,1773.8 c -58.7,59.6 -114.5,121.8 -167.2,186.4 65.3,-62.7 134,-122.5 205.9,-178.8 -13.2,-0.8 -26.2,-3.3 -38.7,-7.6"
         style="fill:#dae9fc;fill-opacity:1;fill-rule:nonzero;stroke:none"
         id="path414" />
      <path
         d="m 11178.2,2828.9 c -24.2,0 -48.7,6.1 -71.1,19.1 l -538.3,311.5 c -54.2,31.4 -80,93.1 -68.2,151.3 l 385.1,-222.8 c 22.4,-13 46.9,-19.2 71.1,-19.2 49.1,0 96.9,25.5 123.2,71 l 1311.4,2266.4 c 98,-38.2 195.8,-76.6 293.6,-115.1 L 11301.5,2899.9 c -26.4,-45.6 -74.2,-71 -123.3,-71"
         style="fill:#cae0fb;fill-opacity:1;fill-rule:nonzero;stroke:none"
         id="path416" />
      <path
         d="m 16997.3,8548.5 h -271.1 c 6.9,27.1 13.4,54.4 19.5,81.7 h 263.5 c -3.6,-27.2 -7.5,-54.6 -11.9,-81.7 m 15.6,111.7 h -260.7 c 49.3,234.8 67.2,475.1 53,715.9 h 136 c 21.1,0 41,5.3 58.4,14.7 37.5,-243.9 41.7,-489.2 13.3,-730.6 M 11712,9119 c -3.8,85.9 -3,171.7 2.6,257.1 h 8.4 c -7.5,-76 -11.2,-152 -11.2,-227.9 v 0 c 0,-9.7 0.1,-19.5 0.2,-29.2 m 1387.9,2152.3 v 103.5 c 116.9,52.6 238.9,96 365.1,129.7 62.7,16.8 125.7,30.9 188.9,42.4 v -111.2 c -190.6,-31.6 -376.8,-86.8 -554,-164.4"
         style="fill:#b8dafe;fill-opacity:1;fill-rule:nonzero;stroke:none"
         id="path418" />
      <path
         d="m 17009.2,8630.2 h -263.5 c 2.2,10 4.4,20 6.5,30 h 260.7 c -1.2,-10 -2.4,-20 -3.7,-30"
         style="fill:#16396b;fill-opacity:1;fill-rule:nonzero;stroke:none"
         id="path420" />
      <path
         d="m 11723,9376.1 h -8.4 c 13.8,212.1 56.5,421.6 127.4,623.5 3.6,-2.4 8,-3.9 12.7,-3.9 h 18.1 c -10.4,-26.3 -20.2,-52.6 -29.6,-79.1 -6.7,-4 -11.2,-11.2 -11.2,-19.5 0,-2.9 0.6,-5.7 1.6,-8.3 -57,-168.3 -93.6,-340.3 -110.6,-512.7 m 168.2,664.9 h -34.2 c 19.2,51.4 40.2,102.4 63,152.7 h 41.8 c -25.5,-50.4 -49.1,-101.3 -70.6,-152.7 m 94.1,197.9 h -44.2 c 12.3,25.6 25,50.9 38.1,76.1 h 48.6 c -1.2,-2.1 -2.5,-4.3 -3.7,-6.4 -13.4,-23.1 -26.3,-46.3 -38.8,-69.7 m 69.6,121.4 h -51.3 c 8.1,14.7 16.4,29.5 24.9,44.1 6.2,10.7 12.5,21.4 18.8,31.9 h 56.2 c -16.6,-24.9 -32.8,-50.2 -48.6,-76 m 79.6,121.3 h -59.4 c 33,52.4 67.9,103.4 104.5,152.7 h 71.8 c -40.8,-49 -79.8,-99.8 -116.9,-152.7 m 155.6,197.9 h -76 c 20.1,25.8 40.8,51.2 61.9,76.1 h 83.9 c -23.7,-24.7 -47.1,-50.2 -69.8,-76.1 m 114.5,121.3 h -89.1 c 23.2,25.9 46.9,51.3 71.1,76.1 h 99 c -27.5,-24.6 -54.5,-50 -81,-76.1 m 133.2,121.3 h -105.7 c 55.6,53.9 113.7,104.8 174.2,152.7 h 134.7 c -70.1,-46.9 -138,-97.8 -203.2,-152.7 m 273.7,198 h -146.1 c 35.5,26.4 71.8,51.7 108.9,76 h 96.9 c 12.5,0 22.7,10.2 22.7,22.7 0,12.5 -10.2,22.6 -22.7,22.6 h -25.2 c 81.5,49.4 166.3,94 253.9,133.4 v -103.5 c -99.2,-43.4 -195.7,-94 -288.4,-151.2"
         style="fill:#dae9fc;fill-opacity:1;fill-rule:nonzero;stroke:none"
         id="path422" />
      <path
         d="m 12871.2,11196.1 h -96.9 c 23.6,15.5 47.5,30.6 71.7,45.3 h 25.2 c 12.5,0 22.7,-10.1 22.7,-22.6 0,-12.5 -10.2,-22.7 -22.7,-22.7"
         style="fill:#b8dafe;fill-opacity:1;fill-rule:nonzero;stroke:none"
         id="path424" />
      <path
         d="m 12741,11074.8 h -134.7 c 19.5,15.4 39.2,30.5 59.1,45.3 h 146.1 c -23.8,-14.7 -47.2,-29.7 -70.5,-45.3"
         style="fill:#b8dafe;fill-opacity:1;fill-rule:nonzero;stroke:none"
         id="path426" />
      <path
         d="m 12485.6,10876.9 h -99 c 15,15.3 30.2,30.4 45.5,45.2 h 105.7 c -17.6,-14.8 -35,-29.8 -52.2,-45.2"
         style="fill:#b8dafe;fill-opacity:1;fill-rule:nonzero;stroke:none"
         id="path428" />
      <path
         d="m 12359.9,10755.6 h -83.9 c 13,15.2 26.2,30.3 39.5,45.2 h 89.1 c -15.1,-14.8 -30,-29.9 -44.7,-45.2"
         style="fill:#b8dafe;fill-opacity:1;fill-rule:nonzero;stroke:none"
         id="path430" />
      <path
         d="m 12251.4,10634.3 h -71.8 c 11.3,15.2 22.8,30.3 34.5,45.2 h 76 c -13.1,-14.9 -26,-29.9 -38.7,-45.2"
         style="fill:#b8dafe;fill-opacity:1;fill-rule:nonzero;stroke:none"
         id="path432" />
      <path
         d="m 12103.5,10436.3 h -56.2 c 9.1,15.3 18.3,30.3 27.8,45.3 h 59.4 c -10.5,-14.9 -20.8,-30.1 -31,-45.3"
         style="fill:#b8dafe;fill-opacity:1;fill-rule:nonzero;stroke:none"
         id="path434" />
      <path
         d="m 12027.8,10315 h -48.6 c 8,15.2 16.1,30.2 24.4,45.3 h 51.3 c -9.2,-15 -18.2,-30 -27.1,-45.3"
         style="fill:#b8dafe;fill-opacity:1;fill-rule:nonzero;stroke:none"
         id="path436" />
      <path
         d="m 11961.8,10193.7 h -41.8 c 6.9,15.1 13.9,30.2 21.1,45.2 h 44.2 c -8,-15 -15.8,-30 -23.5,-45.2"
         style="fill:#b8dafe;fill-opacity:1;fill-rule:nonzero;stroke:none"
         id="path438" />
      <path
         d="m 11872.8,9995.7 h -18.1 c -4.7,0 -9.1,1.5 -12.7,3.9 4.9,13.8 9.9,27.6 15,41.4 h 34.2 c -6.3,-15 -12.5,-30.1 -18.4,-45.3"
         style="fill:#b8dafe;fill-opacity:1;fill-rule:nonzero;stroke:none"
         id="path440" />
      <path
         d="m 11833.6,9888.8 c -1,2.6 -1.6,5.4 -1.6,8.3 0,8.3 4.5,15.5 11.2,19.5 -3.2,-9.2 -6.5,-18.6 -9.6,-27.8"
         style="fill:#b8dafe;fill-opacity:1;fill-rule:nonzero;stroke:none"
         id="path442" />
      <path
         d="m 16941.2,9376.1 h -136 c -5.9,99.3 -17.2,198.8 -34.1,298 h 46.2 c 7.2,0 13,5.8 13,13 v 59.6 c 0,7.2 -5.8,13 -13,13 h -62.1 c -5,24.8 -10.4,49.6 -16.1,74.3 h 78.2 c 7.2,0 13,5.8 13,13 v 59.7 c 0,7.2 -5.8,13 -13,13 h -99.5 c -0.5,2 -1,3.9 -1.5,5.9 -15.8,58.9 -33.3,117 -52.7,174.2 h 87.5 c 13,0 25.4,3.2 36.2,8.8 61,-135.3 111.4,-276.7 150.4,-422.9 26.1,-97.8 46.7,-196.3 61.9,-294.9 -17.4,-9.4 -37.3,-14.7 -58.4,-14.7 m -1020,1322.6 c -36.8,34.7 -74.7,68.2 -113.9,100.6 v 31.2 c 39.7,-42.6 77.6,-86.5 113.9,-131.8 m -290.6,302.6 H 15523 c -14.2,8.6 -28.5,17.1 -42.9,25.4 -118.8,68.8 -241.7,126.5 -367.8,173.2 -63.7,33.6 -128.2,63.8 -193.5,90.9 h 297.2 c 14.3,-7.9 28.5,-15.9 42.7,-24.1 133.6,-77.3 257.9,-166.3 371.9,-265.4 m -614.8,388.2 h -388 c -195.9,52.2 -395.3,77.6 -593.5,77.6 -127.9,0 -255.1,-10.6 -380.4,-31.4 v 111.2 c 90.9,16.6 182.2,27.9 273.4,33.8 -2,-3.3 -3.1,-7.2 -3.1,-11.3 v -54.4 c 0,-12.3 9.9,-22.2 22.1,-22.2 h 783.8 c 96.8,-28.1 192.3,-62.6 285.7,-103.3"
         style="fill:#dae9fc;fill-opacity:1;fill-rule:nonzero;stroke:none"
         id="path444" />
      <path
         d="m 14730.1,11492.8 h -783.8 c -12.2,0 -22.1,9.9 -22.1,22.2 v 54.4 c 0,4.1 1.1,8 3.1,11.3 50.4,3.2 100.9,4.8 151.3,4.8 220.5,0 439.5,-31.1 651.5,-92.7"
         style="fill:#b8dafe;fill-opacity:1;fill-rule:nonzero;stroke:none"
         id="path446" />
      <path
         d="m 15216,11290.8 h -297.2 c -95.6,39.7 -192.9,72.6 -291,98.7 h 388 c 67.8,-29.6 134.6,-62.5 200.2,-98.7"
         style="fill:#b8dafe;fill-opacity:1;fill-rule:nonzero;stroke:none"
         id="path448" />
      <path
         d="m 15807.3,10799.3 c -88.9,73.6 -183.9,141.1 -284.3,202 h 107.6 c 62,-54 121,-111 176.7,-170.8 v -31.2"
         style="fill:#b8dafe;fill-opacity:1;fill-rule:nonzero;stroke:none"
         id="path450" />
      <path
         d="m 16751.1,10099.8 h -87.5 c -105.7,312.8 -264.8,599.6 -469.5,850.2 249.5,-239.6 450.4,-524.2 593.2,-841.4 -10.8,-5.6 -23.2,-8.8 -36.2,-8.8"
         style="fill:#b8dafe;fill-opacity:1;fill-rule:nonzero;stroke:none"
         id="path452" />
      <path
         d="m 16817.3,9834 h -78.2 c -6.6,28.6 -13.7,57.2 -21.3,85.7 h 99.5 c 7.2,0 13,-5.8 13,-13 V 9847 c 0,-7.2 -5.8,-13 -13,-13"
         style="fill:#b8dafe;fill-opacity:1;fill-rule:nonzero;stroke:none"
         id="path454" />
      <path
         d="m 16817.3,9674.1 h -46.2 c -4.8,28.6 -10.1,57.1 -15.9,85.6 h 62.1 c 7.2,0 13,-5.8 13,-13 v -59.6 c 0,-7.2 -5.8,-13 -13,-13"
         style="fill:#b8dafe;fill-opacity:1;fill-rule:nonzero;stroke:none"
         id="path456" />
      <path
         d="m 10956.8,3068.8 c -24.2,0 -48.7,6.2 -71.1,19.2 l -385.1,222.8 c 3,14.7 8.4,29.3 16.3,43.1 l 1971.9,3407.9 c 24.9,43.1 69,68.1 115.2,70.8 -92,72.1 -178.8,149.7 -260.1,232.3 12.5,4.3 25.5,6.8 38.7,7.6 -71.9,56.3 -140.6,116.1 -205.9,178.8 -242.1,296.3 -420.5,643.3 -522.1,1024.1 -188.4,705.6 -90.7,1442.3 275.1,2074.4 365.7,632.1 955.7,1083.9 1661.3,1272.3 234.8,62.7 472.9,93.7 709.6,93.7 474.6,0 943,-124.8 1364.8,-368.8 194,-112.3 371.1,-245.7 528.7,-397 204.7,-250.6 363.8,-537.4 469.5,-850.2 19.4,-57.2 36.9,-115.3 52.7,-174.2 0.5,-2 1,-3.9 1.5,-5.9 7.6,-28.5 14.7,-57.1 21.3,-85.7 5.7,-24.7 11.1,-49.5 16.1,-74.3 5.8,-28.5 11.1,-57 15.9,-85.6 16.9,-99.2 28.2,-198.7 34.1,-298 14.2,-240.8 -3.7,-481.1 -53,-715.9 -2.1,-10 -4.3,-20 -6.5,-30 -6.1,-27.3 -12.6,-54.6 -19.5,-81.7 -61.6,-241.4 -156.8,-475.8 -285,-697.3 -365.8,-632.1 -955.8,-1083.9 -1661.3,-1272.3 -234.7,-62.6 -472.8,-93.6 -709.3,-93.6 -346.8,0 -690.4,66.6 -1014.8,197.7 20.8,-41.4 21,-92.1 -3.9,-135.2 L 12391.4,5406.2 11080,3139.8 c -26.3,-45.5 -74.1,-71 -123.2,-71 M 12646.4,7286 c 138.5,-134.4 294.5,-252.6 465.8,-351.7 364.7,-211 769.7,-318.8 1180.1,-318.8 204.6,0 410.6,26.8 613.6,81 610.1,162.8 1120.2,553.5 1436.5,1100.1 316.2,546.5 400.7,1183.6 237.8,1793.6 -114.8,430.2 -342.9,810.7 -659,1108.5 -36.3,45.3 -74.2,89.2 -113.9,131.8 -55.7,59.8 -114.7,116.8 -176.7,170.8 -114,99.1 -238.3,188.1 -371.9,265.4 -14.2,8.2 -28.4,16.2 -42.7,24.1 -65.6,36.2 -132.4,69.1 -200.2,98.7 -93.4,40.7 -188.9,75.2 -285.7,103.3 -212,61.6 -431,92.7 -651.5,92.7 -50.4,0 -100.9,-1.6 -151.3,-4.8 -91.2,-5.9 -182.5,-17.2 -273.4,-33.8 -63.2,-11.5 -126.2,-25.6 -188.9,-42.4 -126.2,-33.7 -248.2,-77.1 -365.1,-129.7 -87.6,-39.4 -172.4,-84 -253.9,-133.4 -24.2,-14.7 -48.1,-29.8 -71.7,-45.3 -37.1,-24.3 -73.4,-49.6 -108.9,-76 -19.9,-14.8 -39.6,-29.9 -59.1,-45.3 -60.5,-47.9 -118.6,-98.8 -174.2,-152.7 -15.3,-14.8 -30.5,-29.9 -45.5,-45.2 -24.2,-24.8 -47.9,-50.2 -71.1,-76.1 -13.3,-14.9 -26.5,-30 -39.5,-45.2 -21.1,-24.9 -41.8,-50.3 -61.9,-76.1 -11.7,-14.9 -23.2,-30 -34.5,-45.2 -36.6,-49.3 -71.5,-100.3 -104.5,-152.7 -9.5,-15 -18.7,-30 -27.8,-45.3 -6.3,-10.5 -12.6,-21.2 -18.8,-31.9 -8.5,-14.6 -16.8,-29.4 -24.9,-44.1 -8.3,-15.1 -16.4,-30.1 -24.4,-45.3 -13.1,-25.2 -25.8,-50.5 -38.1,-76.1 -7.2,-15 -14.2,-30.1 -21.1,-45.2 -22.8,-50.3 -43.8,-101.3 -63,-152.7 -5.1,-13.8 -10.1,-27.6 -15,-41.4 -70.9,-201.9 -113.6,-411.4 -127.4,-623.5 -5.6,-85.4 -6.4,-171.2 -2.6,-257.1 1.2,-88.3 7.3,-176.3 18.5,-263.6 v 0 c 17.7,-139.4 48,-276.8 90.4,-410.5 v 0 c 107.4,-338.8 292.5,-653.7 547.4,-915.6 v 0 c 85,-87.4 177.8,-168.8 278.1,-243.3"
         style="fill:#16396b;fill-opacity:1;fill-rule:nonzero;stroke:none"
         id="path458" />
      <path
         d="m 12646.4,7286 c -100.3,74.5 -193.1,155.9 -278.1,243.3 l 46.1,18.1 c 70.6,-92.7 148.1,-180 232,-261.4 m -825.5,1158.9 c -42.4,133.7 -72.7,271.1 -90.4,410.5 l 201.1,78.8 c 3.1,-141.9 19,-284.3 48,-425.8 l -158.7,-63.5 m -109.1,703.3 v 0 c -0.1,394.5 100.5,794.4 312.3,1160.4 430,743.2 1209.2,1158.5 2010.2,1158.5 365.2,0 734.7,-86.3 1078,-267.2 v 0 c -87.5,46.1 -176.7,86 -267.1,120 l -60.1,-25.2 c -159.4,33.8 -321.8,50.9 -485.1,50.9 -204.6,0 -410.6,-26.8 -613.6,-81 -575.5,-153.7 -1062.2,-510.1 -1380.9,-1008.8 l -392.5,-164.5 c -136,-304.2 -201.3,-625.4 -201.2,-943.1"
         style="fill:#c9e3fe;fill-opacity:1;fill-rule:nonzero;stroke:none"
         id="path460" />
      <path
         d="m 11730.5,8855.4 c -12.4,96.8 -18.6,194.7 -18.7,292.8 -0.1,317.7 65.2,638.9 201.2,943.1 l 392.5,164.5 c -19.2,-30 -37.7,-60.4 -55.6,-91.3 -219.6,-379.6 -327.4,-802.8 -318.3,-1230.3 l -201.1,-78.8 m 3381.8,2344.5 c -107.1,39.6 -216.5,71.3 -327.2,94.8 l 60.1,25.2 c 90.4,-34 179.6,-73.9 267.1,-120"
         style="fill:#a5cefc;fill-opacity:1;fill-rule:nonzero;stroke:none"
         id="path462" />
      <path
         d="m 12368.3,7529.3 c -254.9,261.9 -440,576.8 -547.4,915.6 l 158.7,63.5 c 9.4,-45.9 20.3,-91.9 32.5,-137.6 80.9,-303 217.9,-581.3 402.3,-823.4 l -46.1,-18.1"
         style="fill:#afd4fd;fill-opacity:1;fill-rule:nonzero;stroke:none"
         id="path464" />
      <path
         d="m 25842.4,11240.7 h -7744.3 c -541.1,0 -979.7,438.7 -979.7,979.8 v 0 c 0,541.1 438.6,979.8 979.7,979.8 h 7744.3 c 541.1,0 979.7,-438.7 979.7,-979.8 v 0 c 0,-541.1 -438.6,-979.8 -979.7,-979.8"
         style="fill:#f4f7fd;fill-opacity:1;fill-rule:nonzero;stroke:none"
         id="path466" />
      <path
         d="m 17961.4,13215.1 c -523.7,0 -949.8,-426.1 -949.8,-949.8 0,-523.7 426.1,-949.7 949.8,-949.7 h 7744.2 c 523.7,0 949.8,426 949.8,949.7 0,523.7 -426.1,949.8 -949.8,949.8 z m 7744.2,-1959.5 h -7744.2 c -556.8,0 -1009.8,453 -1009.8,1009.7 0,556.8 453,1009.8 1009.8,1009.8 h 7744.2 c 556.8,0 1009.8,-453 1009.8,-1009.8 0,-556.7 -453,-1009.7 -1009.8,-1009.7"
         style="fill:#102a54;fill-opacity:1;fill-rule:nonzero;stroke:none"
         id="path468" />
      <path
         d="m 18124.5,12205.9 h -93.6 c -29.5,0 -53.4,23.9 -53.4,53.4 v 93.6 c 0,29.5 23.9,53.4 53.4,53.4 h 93.6 c 29.5,0 53.4,-23.9 53.4,-53.4 v -93.6 c 0,-29.5 -23.9,-53.4 -53.4,-53.4"
         style="fill:#102a54;fill-opacity:1;fill-rule:nonzero;stroke:none"
         id="path470" />
      <path
         d="m 18475.9,12205.9 h -93.7 c -29.5,0 -53.3,23.9 -53.3,53.4 v 93.6 c 0,29.5 23.8,53.4 53.3,53.4 h 93.7 c 29.5,0 53.3,-23.9 53.3,-53.4 v -93.6 c 0,-29.5 -23.8,-53.4 -53.3,-53.4"
         style="fill:#102a54;fill-opacity:1;fill-rule:nonzero;stroke:none"
         id="path472" />
      <path
         d="m 18827.2,12205.9 h -93.6 c -29.5,0 -53.4,23.9 -53.4,53.4 v 93.6 c 0,29.5 23.9,53.4 53.4,53.4 h 93.6 c 29.5,0 53.4,-23.9 53.4,-53.4 v -93.6 c 0,-29.5 -23.9,-53.4 -53.4,-53.4"
         style="fill:#102a54;fill-opacity:1;fill-rule:nonzero;stroke:none"
         id="path474" />
      <path
         d="m 19178.6,12205.9 h -93.7 c -29.5,0 -53.4,23.9 -53.4,53.4 v 93.6 c 0,29.5 23.9,53.4 53.4,53.4 h 93.7 c 29.4,0 53.3,-23.9 53.3,-53.4 v -93.6 c 0,-29.5 -23.9,-53.4 -53.3,-53.4"
         style="fill:#102a54;fill-opacity:1;fill-rule:nonzero;stroke:none"
         id="path476" />
      <path
         d="m 19529.9,12205.9 h -93.6 c -29.5,0 -53.4,23.9 -53.4,53.4 v 93.6 c 0,29.5 23.9,53.4 53.4,53.4 h 93.6 c 29.5,0 53.4,-23.9 53.4,-53.4 v -93.6 c 0,-29.5 -23.9,-53.4 -53.4,-53.4"
         style="fill:#102a54;fill-opacity:1;fill-rule:nonzero;stroke:none"
         id="path478" />
      <path
         d="m 19881.3,12205.9 h -93.7 c -29.5,0 -53.4,23.9 -53.4,53.4 v 93.6 c 0,29.5 23.9,53.4 53.4,53.4 h 93.7 c 29.4,0 53.3,-23.9 53.3,-53.4 v -93.6 c 0,-29.5 -23.9,-53.4 -53.3,-53.4"
         style="fill:#102a54;fill-opacity:1;fill-rule:nonzero;stroke:none"
         id="path480" />
      <path
         d="m 20232.6,12205.9 h -93.6 c -29.5,0 -53.4,23.9 -53.4,53.4 v 93.6 c 0,29.5 23.9,53.4 53.4,53.4 h 93.6 c 29.5,0 53.4,-23.9 53.4,-53.4 v -93.6 c 0,-29.5 -23.9,-53.4 -53.4,-53.4"
         style="fill:#102a54;fill-opacity:1;fill-rule:nonzero;stroke:none"
         id="path482" />
      <path
         d="m 20584,12205.9 h -93.7 c -29.5,0 -53.4,23.9 -53.4,53.4 v 93.6 c 0,29.5 23.9,53.4 53.4,53.4 h 93.7 c 29.4,0 53.3,-23.9 53.3,-53.4 v -93.6 c 0,-29.5 -23.9,-53.4 -53.3,-53.4"
         style="fill:#102a54;fill-opacity:1;fill-rule:nonzero;stroke:none"
         id="path484" />
      <path
         d="m 20935.3,12205.9 h -93.7 c -29.4,0 -53.3,23.9 -53.3,53.4 v 93.6 c 0,29.5 23.9,53.4 53.3,53.4 h 93.7 c 29.5,0 53.4,-23.9 53.4,-53.4 v -93.6 c 0,-29.5 -23.9,-53.4 -53.4,-53.4"
         style="fill:#102a54;fill-opacity:1;fill-rule:nonzero;stroke:none"
         id="path486" />
      <path
         d="m 21286.7,12205.9 h -93.7 c -29.5,0 -53.4,23.9 -53.4,53.4 v 93.6 c 0,29.5 23.9,53.4 53.4,53.4 h 93.7 c 29.4,0 53.3,-23.9 53.3,-53.4 v -93.6 c 0,-29.5 -23.9,-53.4 -53.3,-53.4"
         style="fill:#102a54;fill-opacity:1;fill-rule:nonzero;stroke:none"
         id="path488" />
      <path
         d="m 21638,12205.9 h -93.7 c -29.4,0 -53.3,23.9 -53.3,53.4 v 93.6 c 0,29.5 23.9,53.4 53.3,53.4 h 93.7 c 29.5,0 53.4,-23.9 53.4,-53.4 v -93.6 c 0,-29.5 -23.9,-53.4 -53.4,-53.4"
         style="fill:#102a54;fill-opacity:1;fill-rule:nonzero;stroke:none"
         id="path490" />
      <path
         d="m 21989.4,12205.9 h -93.7 c -29.5,0 -53.4,23.9 -53.4,53.4 v 93.6 c 0,29.5 23.9,53.4 53.4,53.4 h 93.7 c 29.4,0 53.3,-23.9 53.3,-53.4 v -93.6 c 0,-29.5 -23.9,-53.4 -53.3,-53.4"
         style="fill:#102a54;fill-opacity:1;fill-rule:nonzero;stroke:none"
         id="path492" />
      <path
         d="m 22340.7,12205.9 h -93.7 c -29.4,0 -53.3,23.9 -53.3,53.4 v 93.6 c 0,29.5 23.9,53.4 53.3,53.4 h 93.7 c 29.5,0 53.4,-23.9 53.4,-53.4 v -93.6 c 0,-29.5 -23.9,-53.4 -53.4,-53.4"
         style="fill:#102a54;fill-opacity:1;fill-rule:nonzero;stroke:none"
         id="path494" />
      <path
         d="m 22692.1,12205.9 h -93.7 c -29.5,0 -53.4,23.9 -53.4,53.4 v 93.6 c 0,29.5 23.9,53.4 53.4,53.4 h 93.7 c 29.4,0 53.3,-23.9 53.3,-53.4 v -93.6 c 0,-29.5 -23.9,-53.4 -53.3,-53.4"
         style="fill:#102a54;fill-opacity:1;fill-rule:nonzero;stroke:none"
         id="path496" />
      <path
         d="m 23043.4,12205.9 h -93.7 c -29.4,0 -53.3,23.9 -53.3,53.4 v 93.6 c 0,29.5 23.9,53.4 53.3,53.4 h 93.7 c 29.5,0 53.4,-23.9 53.4,-53.4 v -93.6 c 0,-29.5 -23.9,-53.4 -53.4,-53.4"
         style="fill:#102a54;fill-opacity:1;fill-rule:nonzero;stroke:none"
         id="path498" />
      <path
         d="m 23394.8,12205.9 h -93.7 c -29.5,0 -53.4,23.9 -53.4,53.4 v 93.6 c 0,29.5 23.9,53.4 53.4,53.4 h 93.7 c 29.4,0 53.3,-23.9 53.3,-53.4 v -93.6 c 0,-29.5 -23.9,-53.4 -53.3,-53.4"
         style="fill:#102a54;fill-opacity:1;fill-rule:nonzero;stroke:none"
         id="path500" />
      <path
         d="m 23746.1,12205.9 h -93.7 c -29.4,0 -53.3,23.9 -53.3,53.4 v 93.6 c 0,29.5 23.9,53.4 53.3,53.4 h 93.7 c 29.5,0 53.4,-23.9 53.4,-53.4 v -93.6 c 0,-29.5 -23.9,-53.4 -53.4,-53.4"
         style="fill:#102a54;fill-opacity:1;fill-rule:nonzero;stroke:none"
         id="path502" />
      <path
         d="m 24097.5,12205.9 h -93.7 c -29.5,0 -53.4,23.9 -53.4,53.4 v 93.6 c 0,29.5 23.9,53.4 53.4,53.4 h 93.7 c 29.4,0 53.3,-23.9 53.3,-53.4 v -93.6 c 0,-29.5 -23.9,-53.4 -53.3,-53.4"
         style="fill:#102a54;fill-opacity:1;fill-rule:nonzero;stroke:none"
         id="path504" />
      <path
         d="m 24448.8,12205.9 h -93.7 c -29.4,0 -53.3,23.9 -53.3,53.4 v 93.6 c 0,29.5 23.9,53.4 53.3,53.4 h 93.7 c 29.5,0 53.4,-23.9 53.4,-53.4 v -93.6 c 0,-29.5 -23.9,-53.4 -53.4,-53.4"
         style="fill:#102a54;fill-opacity:1;fill-rule:nonzero;stroke:none"
         id="path506" />
      <path
         d="m 24800.2,12205.9 h -93.7 c -29.5,0 -53.4,23.9 -53.4,53.4 v 93.6 c 0,29.5 23.9,53.4 53.4,53.4 h 93.7 c 29.4,0 53.3,-23.9 53.3,-53.4 v -93.6 c 0,-29.5 -23.9,-53.4 -53.3,-53.4"
         style="fill:#102a54;fill-opacity:1;fill-rule:nonzero;stroke:none"
         id="path508" />
      <path
         d="m 25151.5,12205.9 h -93.7 c -29.4,0 -53.3,23.9 -53.3,53.4 v 93.6 c 0,29.5 23.9,53.4 53.3,53.4 h 93.7 c 29.5,0 53.4,-23.9 53.4,-53.4 v -93.6 c 0,-29.5 -23.9,-53.4 -53.4,-53.4"
         style="fill:#102a54;fill-opacity:1;fill-rule:nonzero;stroke:none"
         id="path510" />
      <path
         d="m 25502.8,12205.9 h -93.6 c -29.5,0 -53.4,23.9 -53.4,53.4 v 93.6 c 0,29.5 23.9,53.4 53.4,53.4 h 93.6 c 29.5,0 53.4,-23.9 53.4,-53.4 v -93.6 c 0,-29.5 -23.9,-53.4 -53.4,-53.4"
         style="fill:#102a54;fill-opacity:1;fill-rule:nonzero;stroke:none"
         id="path512" />
      <path
         d="m 25854.2,12205.9 h -93.7 c -29.4,0 -53.3,23.9 -53.3,53.4 v 93.6 c 0,29.5 23.9,53.4 53.3,53.4 h 93.7 c 29.5,0 53.4,-23.9 53.4,-53.4 v -93.6 c 0,-29.5 -23.9,-53.4 -53.4,-53.4"
         style="fill:#102a54;fill-opacity:1;fill-rule:nonzero;stroke:none"
         id="path514" />
      <path
         d="m 7628.03,2780.1 h -775.22 c -34.64,0 -59.49,-33.4 -49.56,-66.6 L 7142.4,1580.9 c 6.55,-21.9 26.7,-36.9 49.55,-36.9 h 219.8 216.28 219.8 c 22.85,0 43,15 49.55,36.9 l 339.15,1132.6 c 9.93,33.2 -14.92,66.6 -49.56,66.6 h -558.94"
         style="fill:#102a54;fill-opacity:1;fill-rule:nonzero;stroke:none"
         id="path516" />
      <path
         d="m 8066.22,3332.1 c 21.35,56.3 48.94,112.5 95.07,151.3 46.14,38.7 114.72,55.9 168.02,27.8 39.17,-20.6 79.76,-64.3 118.43,-42.7 24.07,13.4 29.39,45.2 31.03,72.7 5.36,89.7 4.23,190.7 68.15,253.9 62.96,62.1 164.86,60.9 250.61,39 40.45,-10.3 85.21,-23.9 122.05,-4.2 19.71,10.5 33.74,29.1 45.4,48.1 41.08,67.2 67.18,153.2 139.06,185.2 115.66,51.6 250.55,-78.9 369.5,-35.4 46.55,17 86.36,59.8 135.7,55.1 24.37,-2.3 46.29,-16.5 63.2,-34.2 57.39,-60.1 57.97,-165.7 0.85,-226 -75.92,-80.2 -215.25,-69 -292.03,-148.4 -73.76,-76.3 -67.67,-214.6 -157.68,-270.8 -75.83,-47.3 -178.13,-8.5 -262.38,-38.3 -67.59,-24 -111.72,-87.2 -155.5,-144 -43.77,-56.8 -99.42,-114.6 -170.99,-119.1 -37.57,-2.3 -74.98,10.8 -112.47,7.4 -107.87,-9.9 -167.98,-146.2 -275.08,-162.4 -71.89,-10.8 -133.44,37.1 -183.19,82.7 -19.76,18.1 -38.22,38.6 -45.34,65.1 -8.56,31.8 -1.42,66.3 5.64,97.7 10.66,47.4 24.74,94 41.95,139.5"
         style="fill:#6cb597;fill-opacity:1;fill-rule:nonzero;stroke:none"
         id="path518" />
      <path
         d="m 7292.63,3555.6 c -58.76,43.7 -94.37,127.9 -59.63,192.3 16.92,31.4 47.09,53.1 70.93,79.6 23.84,26.5 42.07,64.5 27.95,97.3 -6.99,16.2 -20.8,28.3 -34.15,39.8 -48.15,41.7 -96.95,85.1 -127.26,141.1 -30.3,56 -38.86,128.1 -5.34,182.3 25.31,40.9 69.54,65.2 107.94,94.1 38.41,28.9 74.84,70.3 71.64,118.2 -3.98,59.8 -68.47,114.2 -44.5,169.1 24.83,57 123.99,53.8 140.21,113.8 8.07,29.7 -9.9,59.6 -17.3,89.5 -16.47,66.8 28.71,142.5 95.27,159.8 66.56,17.2 142.82,-27.1 160.8,-93.5 12.45,-45.9 -0.18,-97 18.01,-141 23.6,-57 91.19,-84.3 120.8,-138.5 54.48,-99.7 -44.49,-217.8 -36.19,-331.2 8.78,-119.8 136.79,-221.7 103.8,-337.2 -12.92,-45.3 -49.28,-81.1 -61.86,-126.4 -15.01,-54.1 6.07,-110.6 21.15,-164.7 15.09,-54.1 22.29,-118.1 -13.96,-160.9 -26.83,-31.7 -70.45,-42.9 -111.5,-49.3 -113.78,-17.7 -226.85,-12.5 -336.93,21.9 -31.95,10 -62.91,23.8 -89.88,43.9"
         style="fill:#6cb597;fill-opacity:1;fill-rule:nonzero;stroke:none"
         id="path520" />
      <path
         d="m 7517.29,2495.3 c -2.61,0 -5.26,0.7 -7.65,2.1 -6.8,4.3 -8.88,13.2 -4.64,20 104.48,167.8 234.14,317.5 385.37,444.9 166.62,140.4 357.2,251.2 541.51,358.3 l 1251.73,727.9 c 6.92,4 15.8,1.6 19.83,-5.3 4.03,-6.9 1.67,-15.8 -5.25,-19.8 L 8446.46,3295.6 c -183.23,-106.6 -372.71,-216.7 -537.4,-355.5 -148.9,-125.4 -276.56,-272.8 -379.44,-438 -2.74,-4.4 -7.48,-6.8 -12.33,-6.8"
         style="fill:#102a54;fill-opacity:1;fill-rule:nonzero;stroke:none"
         id="path522" />
      <path
         d="m 7557.48,2557 c -7.81,0 -14.25,6.2 -14.48,14.1 -21.43,727.9 -5.43,1727.2 11.76,2437.3 0.2,8 6.7,14.3 14.85,14.2 8.01,-0.2 14.35,-6.9 14.15,-14.9 -17.18,-709.8 -33.17,-1708.5 -11.77,-2435.7 0.24,-8 -6.06,-14.7 -14.07,-15 h -0.44"
         style="fill:#102a54;fill-opacity:1;fill-rule:nonzero;stroke:none"
         id="path524" />
      <path
         d="m 6835.72,2949.6 c -84.52,9.1 -170.28,65.1 -185.47,148.8 -12.12,66.7 15.2,152.6 -40.19,191.8 -19.43,13.7 -44.36,16.6 -68.13,17.7 -85.97,4.1 -180.23,-7.1 -250.47,42.6 -102.2,72.4 -91.98,222.5 -100.3,347.5 -2.13,32 -7.5,66.7 -30.7,88.9 -24.77,23.8 -62.15,26.4 -95.63,34 -122.01,27.6 -217.3,145.5 -218.61,270.6 -0.39,38.3 8.05,78.4 33.5,107 17.31,19.4 41.24,31.9 66.09,39.6 79.27,24.3 171.75,-2.2 226.12,-64.8 33.96,-39.1 53.51,-90 91.78,-124.9 108.18,-98.7 285.94,-17.6 425.09,-63.1 77.82,-25.5 140.03,-94 157.96,-173.9 15.56,-69.3 0.48,-146.4 34.39,-208.8 58.23,-107.2 210.96,-101.2 323.51,-148.3 27.07,-11.4 53.6,-27.4 68.92,-52.4 11.86,-19.4 16,-42.5 17.88,-65.1 7.57,-91.5 -21.38,-184.4 -75.57,-258 -24.29,-33 -56.73,-71.2 -95.14,-88 -29.15,-12.7 -63.43,-8.1 -94.12,-15.5 -63.59,-15.3 -124.61,-32.9 -190.91,-25.7"
         style="fill:#6cb597;fill-opacity:1;fill-rule:nonzero;stroke:none"
         id="path526" />
      <path
         d="m 7480.91,2474.4 c -5.18,0 -10.19,2.8 -12.81,7.7 -200.24,374.5 -633.7,869.1 -842.02,1106.9 -62.44,71.2 -127,144.9 -202.22,204.3 -61.83,48.9 -133.13,90 -202.08,129.8 -126.5,72.9 -257.32,148.4 -335.08,274.7 -4.2,6.8 -2.07,15.8 4.75,20 6.82,4.2 15.75,2 19.95,-4.8 73.92,-120 195.82,-190.4 324.87,-264.8 69.86,-40.3 142.08,-82 205.58,-132.1 77.3,-61.1 142.75,-135.8 206.05,-208 209.02,-238.5 643.97,-734.9 845.79,-1112.3 3.77,-7.1 1.1,-15.9 -5.96,-19.6 -2.17,-1.2 -4.52,-1.8 -6.82,-1.8"
         style="fill:#102a54;fill-opacity:1;fill-rule:nonzero;stroke:none"
         id="path528" />
      <path
         d="m 25109.7,9606.8 c 0,0 -658.8,-1235 -764.6,-1334.6 -105.7,-99.6 -1598.6,-510.5 -1598.6,-510.5 l 58.9,-216.3 c 0,0 1849.3,-42.9 1943.5,0 94.2,42.9 637,524.8 637,524.8 l -276.2,1536.6"
         style="fill:#3c94f8;fill-opacity:1;fill-rule:nonzero;stroke:none"
         id="path530" />
      <path
         d="m 24199.9,2198.5 45.2,-271.3 h 343.3 l -19.8,310.8 -368.7,-39.5"
         style="fill:#ffc0b1;fill-opacity:1;fill-rule:nonzero;stroke:none"
         id="path532" />
      <path
         d="m 22965.1,2253.3 18.9,-369.5 306.4,23.6 45.5,343.1 -370.8,2.8"
         style="fill:#ffc0b1;fill-opacity:1;fill-rule:nonzero;stroke:none"
         id="path534" />
      <path
         d="m 25619.9,6720 c 0,0 -2180.5,-729.9 -2505.5,-1055 -325,-325 -195.8,-3424.6 -195.8,-3424.6 h 466.3 l 656.5,2550.6 c 0,0 2642.8,58.7 2928.5,560.5 376.8,662 89.1,1523.9 89.1,1523.9 L 25619.9,6720"
         style="fill:#0c203f;fill-opacity:1;fill-rule:nonzero;stroke:none"
         id="path536" />
      <path
         d="m 25753.6,6548.1 c 0,0 -1813.2,-1056 -2043.5,-1406.7 -230.2,-350.6 456.5,-2946.4 456.5,-2946.4 l 424.7,45.4 109.1,2291.7 c 0,0 2350.7,541.9 2513,1043.3 214.1,661.3 -202.6,1378.2 -202.6,1378.2 l -1257.2,-405.5"
         style="fill:#102a54;fill-opacity:1;fill-rule:nonzero;stroke:none"
         id="path538" />
      <path
         d="m 23341.7,1979.2 c 0,0 -277.6,-77.1 -406.2,0 l -556,-290.4 c -75.3,-39.4 -122.5,-117.3 -122.5,-202.3 v -5.9 h 1094.1 c 33,0 58.3,29.2 53.6,61.8 l -63,436.8"
         style="fill:#0c203f;fill-opacity:1;fill-rule:nonzero;stroke:none"
         id="path540" />
      <path
         d="m 24603.5,1979.2 c 0,0 -277.5,-77.1 -406.1,0 l -556,-290.4 c -75.3,-39.4 -122.5,-117.3 -122.5,-202.3 v -5.9 H 24613 c 33,0 58.3,29.2 53.6,61.8 l -63.1,436.8"
         style="fill:#102a54;fill-opacity:1;fill-rule:nonzero;stroke:none"
         id="path542" />
      <path
         d="m 25644.3,9937 -209.4,853 v -0.1 c -0.3,160.9 -31.8,353.1 -111.8,578.4 -53,149.3 -223.3,220.5 -367.3,154.6 l -405.9,-185.9 c -110.5,-50.6 -169.7,-172.6 -140.9,-290.6 34.2,-140 75,-322.3 88.1,-444.2 11.3,-106.6 40.8,-230.7 111.1,-323 122.9,-161.5 339.5,-216.3 517.7,-134.6 l 50.6,-553.5 467.8,345.9"
         style="fill:#ffc0b1;fill-opacity:1;fill-rule:nonzero;stroke:none"
         id="path544" />
      <path
         d="m 24641,10655.6 c -12.9,0 -25.2,4.8 -34.8,13.8 -11.9,11 -17.8,26.6 -16.3,42.7 l 32.4,331.3 c 0.6,6.4 6.4,11.1 12.7,10.5 6.4,-0.6 11.1,-6.3 10.5,-12.7 l -32.3,-331.4 c -0.9,-8.8 2.4,-17.3 8.8,-23.3 6.5,-6 15.3,-8.6 24,-7.1 l 100.9,17.7 c 6.4,1 12.4,-3.2 13.5,-9.5 1.1,-6.4 -3.1,-12.4 -9.5,-13.6 l -100.9,-17.6 c -3,-0.5 -6,-0.8 -9,-0.8"
         style="fill:#102a54;fill-opacity:1;fill-rule:nonzero;stroke:none"
         id="path546" />
      <path
         d="m 24887.4,10656.3 c 0,0 -123.3,-112.2 -281,-152.1 0,0 229,-139.8 281,152.1"
         style="fill:#ffffff;fill-opacity:1;fill-rule:nonzero;stroke:none"
         id="path548" />
      <path
         d="m 24694.2,10522.8 c -4.6,0 -9,2.7 -10.8,7.2 -2.5,6 0.4,12.8 6.3,15.3 123.1,50.7 197.3,134.6 198,135.4 4.3,4.8 11.6,5.3 16.5,1.1 4.8,-4.2 5.3,-11.6 1.1,-16.5 -3.1,-3.6 -78.3,-88.7 -206.7,-141.6 -1.4,-0.6 -2.9,-0.9 -4.4,-0.9"
         style="fill:#102a54;fill-opacity:1;fill-rule:nonzero;stroke:none"
         id="path550" />
      <path
         d="m 24556.5,10979.9 c 0,-27.8 -18.2,-50.3 -40.6,-50.3 -22.3,0 -40.5,22.5 -40.5,50.3 0,27.7 18.2,50.3 40.5,50.3 22.4,0 40.6,-22.6 40.6,-50.3"
         style="fill:#102a54;fill-opacity:1;fill-rule:nonzero;stroke:none"
         id="path552" />
      <path
         d="m 24827.9,11062.4 c 0,-27.8 -18.1,-50.3 -40.5,-50.3 -22.4,0 -40.5,22.5 -40.5,50.3 0,27.7 18.1,50.3 40.5,50.3 22.4,0 40.5,-22.6 40.5,-50.3"
         style="fill:#102a54;fill-opacity:1;fill-rule:nonzero;stroke:none"
         id="path554" />
      <path
         d="m 24401.8,11162.2 c 0,0 448.6,-37.6 644.9,112.8 0,0 4.1,-298.3 75.1,-345.4 71,-47.2 288.7,0.8 356.6,-300.6 0,0 119.5,328.6 65.2,712.8 -54.3,384.2 -296.5,568 -530.4,547.1 -233.8,-20.9 -1096.4,-341.3 -611.4,-726.7"
         style="fill:#102a54;fill-opacity:1;fill-rule:nonzero;stroke:none"
         id="path556" />
      <path
         d="m 25131.8,11058.6 c -26.8,-112 4.7,-215.5 70.4,-231.2 65.7,-15.7 140.6,62.3 167.4,174.3 26.8,112 -4.7,215.5 -70.4,231.2 -65.7,15.8 -140.6,-62.3 -167.4,-174.3"
         style="fill:#ffc0b1;fill-opacity:1;fill-rule:nonzero;stroke:none"
         id="path558" />
      <path
         d="m 25196,10944.2 c -6.2,0 -11.3,4.9 -11.6,11.1 -6.4,132.2 99.3,240.3 103.8,244.8 4.6,4.6 11.9,4.6 16.5,0.1 4.6,-4.5 4.6,-11.9 0.1,-16.5 -1,-1.1 -102.9,-105.5 -97.1,-227.3 0.3,-6.4 -4.7,-11.9 -11.1,-12.2 h -0.6"
         style="fill:#102a54;fill-opacity:1;fill-rule:nonzero;stroke:none"
         id="path560" />
      <path
         d="m 25644.6,10063.6 c 0,0 1299.2,-548.2 1536.7,-3378.8 0,0 -560.1,-339.6 -1930.6,-142.4 0,0 36.7,305.7 23.9,431.4 -12.8,125.6 -420.1,2045 -164.9,2633 l 534.9,456.8"
         style="fill:#3c94f8;fill-opacity:1;fill-rule:nonzero;stroke:none"
         id="path562" />
      <path
         d="m 25125.9,10132.9 c -4.5,0 -8.9,2.7 -10.7,7.2 -2.5,5.9 0.2,12.7 6.2,15.2 1.8,0.8 131.2,58.3 205.4,260.4 2.2,6.1 8.9,9.2 15,7 6,-2.3 9.1,-9 6.9,-15 -78.1,-212.8 -212.6,-271.5 -218.3,-273.9 -1.4,-0.6 -3,-0.9 -4.5,-0.9"
         style="fill:#102a54;fill-opacity:1;fill-rule:nonzero;stroke:none"
         id="path564" />
      <path
         d="m 25611.2,9403.5 c 0,0 -408.2,-1044.5 -529.2,-1203.7 -121,-159.3 -1965.6,-459.2 -1965.6,-459.2 l 109,-299.9 c 0,0 1891.9,-109 2122.7,0 230.9,109.1 748.8,481.7 894.2,1008.7 145.4,527.1 -171.8,1190.4 -631.1,954.1"
         style="fill:#3c94f8;fill-opacity:1;fill-rule:nonzero;stroke:none"
         id="path566" />
      <path
         d="m 24690.4,7380.4 c -610.6,0 -1414.8,45.8 -1465.7,48.7 -6.4,0.4 -11.3,5.9 -10.9,12.3 0.3,6.5 5.6,11.3 12.3,11 18.9,-1.1 1891.5,-107.6 2117,-1.1 195.7,92.4 736.6,452.5 888,1001.2 1.7,6.2 8.2,9.9 14.3,8.2 6.2,-1.8 9.9,-8.2 8.2,-14.4 -153.8,-557.2 -702.1,-922.4 -900.5,-1016.1 -79,-37.4 -344.6,-49.8 -662.7,-49.8"
         style="fill:#102a54;fill-opacity:1;fill-rule:nonzero;stroke:none"
         id="path568" />
      <path
         d="m 23116.4,7728.9 c -5.7,0 -10.6,4.1 -11.6,9.8 -1,6.4 3.3,12.4 9.7,13.4 636.4,103.5 1864.7,331.7 1958.2,454.7 118.6,156.2 523.5,1190.6 527.6,1201 2.4,6 9.1,9 15.1,6.6 6,-2.3 9,-9.1 6.7,-15.1 -16.7,-42.7 -410.2,-1047.9 -530.8,-1206.6 -122.4,-161.1 -1897.5,-451.3 -1973.1,-463.6 l -1.8,-0.2"
         style="fill:#102a54;fill-opacity:1;fill-rule:nonzero;stroke:none"
         id="path570" />
      <path
         d="m 25125.9,8260 c -6.2,0 -11.3,4.8 -11.7,11.1 -0.3,8.2 -38.5,821.8 0.1,1133.9 0.8,6.4 6.6,10.9 13.1,10.1 6.4,-0.8 10.9,-6.6 10.1,-13 -38.4,-310.1 -0.3,-1121.7 0.1,-1129.9 0.3,-6.4 -4.7,-11.9 -11.1,-12.2 h -0.6"
         style="fill:#102a54;fill-opacity:1;fill-rule:nonzero;stroke:none"
         id="path572" />
      <path
         d="m 23150.5,7690.3 c 0,0 -222.7,51.6 -319.7,13.5 -35,-13.7 -427.9,-330.9 -427.9,-330.9 h 90.5 490 l 224.6,115.7 -57.5,201.7"
         style="fill:#ffc0b1;fill-opacity:1;fill-rule:nonzero;stroke:none"
         id="path574" />
      <path
         d="m 22758.4,7717.8 c 0,0 -185.5,14 -245.7,0 -60.3,-13.9 -368.8,-154.9 -368.8,-172.4 0,-17.5 31.4,-41.6 72.3,-31.9 41,9.6 388.1,104.2 388.1,104.2 0,0 -197.7,-97 -226.6,-138 -28.9,-41 -55.4,-106.8 -55.4,-106.8 h 363.9 l 119.2,172.5 -47,172.4"
         style="fill:#ffc0b1;fill-opacity:1;fill-rule:nonzero;stroke:none"
         id="path576" />
      <path
         d="m 22418.1,7362.9 c -1,0 -2,0.2 -3,0.5 -5.2,1.6 -8.2,7.3 -6.5,12.5 0.5,1.5 11.8,36.8 46.8,71.8 34,34 300.6,217 312,224.8 4.5,3.1 10.8,2 13.9,-2.6 3.1,-4.5 2,-10.7 -2.6,-13.9 -2.8,-1.9 -276.5,-189.8 -309.1,-222.4 -31.7,-31.6 -41.8,-63.3 -41.9,-63.6 -1.4,-4.3 -5.3,-7.1 -9.6,-7.1"
         style="fill:#102a54;fill-opacity:1;fill-rule:nonzero;stroke:none"
         id="path578" />
      <path
         d="m 26111.5,4650.6 -763.4,-3170 h 63.4 l 972.4,3187 -272.4,-17"
         style="fill:#102a54;fill-opacity:1;fill-rule:nonzero;stroke:none"
         id="path580" />
      <path
         d="m 27183.8,4650.6 763.4,-3170 h -63.4 l -972.4,3187 272.4,-17"
         style="fill:#102a54;fill-opacity:1;fill-rule:nonzero;stroke:none"
         id="path582" />
      <path
         d="m 25444.1,4779.3 c 0,0 1120.8,564.2 1654.7,1408.2 280.1,442.7 312.8,1600.4 544,1618.2 231.2,17.8 444.6,-355.7 515.7,-764.7 71.1,-409 71.1,-1980.5 -444.6,-2261.7 C 27198.2,4498.1 25415,4373.6 25293,4427 c -122,53.3 -162.7,171.1 151.1,352.3"
         style="fill:#7fc0ff;fill-opacity:1;fill-rule:nonzero;stroke:none"
         id="path584" />
      <path
         d="m 25935.4,7056.4 h -7929.8 c -49.9,0 -90.4,40.5 -90.4,90.5 0,49.9 40.5,90.5 90.4,90.5 h 7929.8 c 50,0 90.5,-40.6 90.5,-90.5 0,-50 -40.5,-90.5 -90.5,-90.5"
         style="fill:#7fc0ff;fill-opacity:1;fill-rule:nonzero;stroke:none"
         id="path586" />
      <path
         d="m 18470,1480.6 h -140.1 l 1078.3,5575.8 h 140.1 L 18470,1480.6"
         style="fill:#7fc0ff;fill-opacity:1;fill-rule:nonzero;stroke:none"
         id="path588" />
      <path
         d="m 25471.1,1480.6 h 140.1 l -1078.4,5575.8 h -140 l 1078.3,-5575.8"
         style="fill:#7fc0ff;fill-opacity:1;fill-rule:nonzero;stroke:none"
         id="path590" />
      <path
         d="m 20889.7,7372.9 -916.4,2138.5 c -9.4,22 -31.1,36.3 -55.1,36.3 -43.1,0 -72.1,-44 -55.1,-83.6 l 954.2,-2226.7 h 72.4 58.1 2134.9 c 37.5,0 67.8,30.3 67.8,67.7 0,37.5 -30.3,67.8 -67.8,67.8 h -2193"
         style="fill:#102a54;fill-opacity:1;fill-rule:nonzero;stroke:none"
         id="path592" />
      <path
         d="M 32432.7,1464.2 H 2640.3 c -22.09,0 -40,17.9 -40,40 0,22 17.91,40 40,40 h 29792.4 c 22.1,0 40,-18 40,-40 0,-22.1 -17.9,-40 -40,-40"
         style="fill:#102a54;fill-opacity:1;fill-rule:nonzero;stroke:none"
         id="path594" />
      <path
         d="m 15094.2,9220.5 c 0,563 -456.5,1019.4 -1019.5,1019.4 -563,0 -1019.4,-456.4 -1019.4,-1019.4 0,-305.7 134.5,-579.9 347.6,-766.8 18.6,293.6 225.3,536.1 500.9,608.2 -127,63 -214.3,193.9 -214.3,345.2 0,212.8 172.5,385.3 385.2,385.3 212.8,0 385.2,-172.5 385.2,-385.3 0,-151.3 -87.3,-282.2 -214.3,-345.2 275.7,-72.1 482.3,-314.6 500.9,-608.2 213.1,186.9 347.7,461.1 347.7,766.8"
         style="fill:#80c0ff;fill-opacity:1;fill-rule:nonzero;stroke:none"
         id="path596" />
      <path
         d="m 14245.6,9061.9 c 127,63 214.3,193.9 214.3,345.2 0,212.8 -172.4,385.3 -385.2,385.3 -212.7,0 -385.2,-172.5 -385.2,-385.3 0,-151.3 87.3,-282.2 214.3,-345.2 -275.6,-72.1 -482.3,-314.6 -500.9,-608.2 179.4,-157.3 414.5,-252.7 671.8,-252.7 257.4,0 492.4,95.4 671.8,252.7 -18.6,293.6 -225.2,536.1 -500.9,608.2"
         style="fill:#3c94f8;fill-opacity:1;fill-rule:nonzero;stroke:none"
         id="path598" />
      <path
         d="m 25068.1,16003.7 c -194.1,23 -370,-115.8 -393,-309.8 23,194 -115.7,370 -309.8,393 -194.1,23 -370,-115.7 -393,-309.8 -2.7,-22.4 -3.1,-44.6 -1.6,-66.3 7.5,-586.7 608.7,-825.7 608.7,-825.7 0,0 640.3,92 784.6,660.7 6.5,20.8 11.3,42.4 13.9,64.9 23,194 -115.7,370 -309.8,393"
         style="fill:#80c0ff;fill-opacity:1;fill-rule:nonzero;stroke:none"
         id="path600" />
    </g>
  </g>
</svg>
